<?xml version="1.0" encoding="UTF-8"?>
<svg id="Capa_1" data-name="Capa 1" xmlns="http://www.w3.org/2000/svg" viewBox="0 0 59.82 18.82">
  <path fill="#cc0d5f" d="M15.58,9.44c-1.16.99-2.33,1.96-3.49,2.91-1.16.95-2.3,1.92-3.42,2.91-.47.43-1.01.93-1.62,1.49-.6.56-1.25,1.03-1.94,1.42-.69.39-1.38.6-2.07.65-.69.04-1.38-.24-2.07-.84S-.04,16.8,0,16.26c.04-.54.24-1.17.58-1.91.26-.52.61-1.23,1.07-2.13.45-.9.99-1.88,1.62-2.94.62-1.06,1.28-2.12,1.97-3.2.69-1.08,1.4-2.06,2.13-2.94.73-.88,1.44-1.62,2.13-2.2C10.19.37,10.84.05,11.44.01c.47-.04.95.04,1.42.26.47.22.84.48,1.1.81.26.32.38.7.36,1.13-.02.43-.29.86-.81,1.29-.39.34-.82.65-1.29.9s-.93.56-1.36.9c-.9.78-1.67,1.66-2.29,2.65-.62.99-1.24,2-1.84,3.04-.65,1.16-.87,1.8-.68,1.91.19.11.83-.27,1.91-1.13,1.59-1.29,3.21-2.56,4.85-3.81,1.64-1.25,3.27-2.5,4.91-3.75.34-.26.7-.54,1.07-.84.37-.3.74-.53,1.13-.68.39-.15.79-.19,1.2-.13.41.06.83.29,1.26.68.43.43.65.94.65,1.52s-.12,1.18-.36,1.81c-.24.62-.52,1.23-.84,1.81-.32.58-.57,1.09-.74,1.52,1.08-.39,2.12-.84,3.13-1.36,1.01-.52,2-1.07,2.97-1.65.97-.58,1.95-1.15,2.94-1.71.99-.56,2-1.06,3.04-1.49,1.72-.69,3.08-1,4.07-.94.99.06,1.74.41,2.26,1.03.52.62.84,1.49.97,2.58.13,1.1.19,2.34.19,3.72,0,.95.3,1.65.9,2.1.6.45,1.39.73,2.36.84.97.11,2.05.08,3.23-.1,1.18-.17,2.36-.41,3.52-.71,1.16-.3,2.26-.64,3.3-1,1.03-.37,1.87-.68,2.52-.94.22-.09.53-.24.94-.45.41-.22.72-.32.94-.32.73,0,1.2.2,1.39.61.19.41.05.85-.42,1.32-.22.26-.67.56-1.36.9-.69.34-1.53.71-2.52,1.1-.99.39-2.07.76-3.23,1.13-1.16.37-2.3.68-3.42.94-.86.22-1.77.4-2.71.55-.95.15-1.87.23-2.78.23s-1.78-.13-2.62-.39c-.84-.26-1.58-.71-2.23-1.36-.65-.69-1.07-1.53-1.26-2.52-.19-.99-.33-2.11-.42-3.36-.04-1.03-.13-1.78-.26-2.23-.13-.45-.71-.46-1.74-.03-2.37.99-4.6,2.2-6.69,3.62-2.09,1.42-4.21,2.82-6.36,4.2-.82.52-1.65.79-2.49.81-.84.02-1.56-.18-2.16-.61-.6-.43-1.06-1.07-1.36-1.91-.3-.84-.34-1.86-.13-3.07Z"/>
</svg>
