<?xml version="1.0" encoding="UTF-8"?>
<!DOCTYPE svg PUBLIC "-//W3C//DTD SVG 1.1//EN" "http://www.w3.org/Graphics/SVG/1.1/DTD/svg11.dtd">
<!-- Creator: CorelDRAW -->
<svg xmlns="http://www.w3.org/2000/svg" xml:space="preserve" width="35.1406mm" height="7.399mm" version="1.1" style="shape-rendering:geometricPrecision; text-rendering:geometricPrecision; image-rendering:optimizeQuality; fill-rule:evenodd; clip-rule:evenodd"
viewBox="0 0 1276 269"
 xmlns:xlink="http://www.w3.org/1999/xlink"
 xmlns:xodm="http://www.corel.com/coreldraw/odm/2003"
 data-name="Capa 1">
 <defs>
  <style type="text/css">
   <![CDATA[
    .fil0 {fill:white}
   ]]>
  </style>
 </defs>
 <g id="Capa_x0020_1">
  <metadata id="CorelCorpID_0Corel-Layer"/>
  <g id="_2858387877008">
   <path class="fil0" d="M381 215c-3,1 -5,2 -9,3 -7,3 -14,5 -22,8 -8,2 -15,5 -23,6 -6,1 -12,3 -18,4 -6,1 -13,2 -19,2 -6,0 -12,-1 -18,-3 -6,-2 -11,-5 -15,-9 -4,-5 -7,-10 -8,-17 -1,-7 -2,-14 -3,-23 0,-7 -1,-12 -2,-15 -1,-3 -5,-3 -12,0 -16,7 -31,15 -45,24 -14,10 -28,19 -43,28 -5,3 -11,5 -17,5 -6,0 -10,-1 -15,-4 -4,-3 -7,-7 -9,-13 -2,-6 -2,-12 -1,-21 -8,7 -16,13 -23,20 -8,6 -15,13 -23,20 -3,3 -7,6 -11,10 -4,4 -8,7 -13,10 -5,3 -9,4 -14,4 -5,0 -9,-2 -14,-6 -5,-4 -7,-8 -7,-12 0,-4 2,-8 4,-13l7 -14c3,-6 7,-13 11,-20 4,-7 9,-14 13,-22 5,-7 9,-14 14,-20 5,-6 10,-11 14,-15 5,-4 9,-6 13,-6 3,0 6,0 10,2 3,1 6,3 7,5 2,2 2,5 2,8 0,3 -2,6 -5,9 -3,2 -5,4 -9,6 -3,2 -6,4 -9,6 -6,5 -11,11 -15,18 -4,7 -8,13 -12,20 -4,8 -6,12 -5,13 1,1 6,-2 13,-8 11,-9 22,-17 33,-26l33 -25c2,-2 5,-4 7,-6 2,-2 5,-4 8,-5 3,-1 5,-1 8,-1 3,0 6,2 8,5 3,3 4,6 4,10 0,4 -1,8 -2,12 -2,4 -3,8 -6,12 -2,4 -4,7 -5,10 7,-3 14,-6 21,-9 7,-3 13,-7 20,-11 7,-4 13,-8 20,-12 7,-4 13,-7 20,-10 12,-5 21,-7 27,-6 7,0 12,3 15,7 3,4 6,10 7,17 1,7 1,16 1,25 0,6 2,11 6,14 4,3 9,5 16,6 7,1 14,0 22,-1 8,-1 16,-3 24,-5 8,-2 15,-4 22,-7 7,-2 13,-5 17,-6 1,-1 4,-2 6,-3 0,0 1,0 1,-1 3,-5 6,-11 10,-16 7,-9 15,-16 24,-23 9,-6 19,-11 29,-14 10,-3 21,-3 31,-1 6,1 12,4 17,9 5,5 8,10 8,17 1,10 -2,18 -8,23 -6,5 -15,8 -25,11 -10,2 -21,4 -32,5 -12,1 -22,3 -31,5 0,1 0,1 0,1 0,0 0,1 0,1 -1,5 0,9 4,12 4,3 9,4 15,4 14,0 29,-2 44,-4 15,-2 30,-5 44,-8 14,-3 27,-6 40,-10 12,-3 22,-6 31,-9 5,-9 11,-17 19,-25 10,-9 20,-18 31,-25 11,-7 21,-11 28,-13 10,-2 19,-2 25,0 6,2 13,7 21,13 3,3 6,5 8,6 2,1 4,2 5,1 1,0 3,-1 4,-3 1,-2 3,-4 5,-8 7,-10 14,-21 23,-33 9,-12 17,-24 26,-36 9,-12 18,-24 28,-35 9,-11 18,-21 27,-29 2,-1 4,-3 6,-5 2,-2 4,-3 6,-5 2,-1 4,-2 7,-2 2,0 4,1 7,3 3,3 4,5 3,8 -1,2 -2,5 -4,7 -24,27 -46,55 -66,83 -20,28 -40,57 -59,87 -11,17 -16,29 -16,37 0,8 4,14 11,17 7,3 17,3 30,0 13,-2 26,-6 40,-11 14,-5 28,-11 42,-18 13,-6 23,-12 32,-18 2,-4 5,-8 7,-12 4,-6 9,-12 13,-17 3,-4 7,-6 10,-7 3,-1 7,1 11,5 4,4 6,7 4,9 -2,2 -4,5 -7,8 -9,10 -15,19 -18,26 -3,7 -2,11 2,14 4,2 10,3 18,3 8,-1 17,-2 27,-5 10,-3 21,-6 30,-9 10,-3 19,-7 26,-10 8,-3 13,-5 16,-6 1,-1 2,-1 4,-1 0,0 1,-1 1,-1 6,-6 13,-12 20,-18 8,-6 16,-11 25,-15 9,-5 17,-8 26,-12 9,-3 17,-6 24,-8 13,-4 23,-3 31,2 8,5 14,14 18,26 1,5 1,10 -1,15 -2,5 -3,10 -4,14 -1,9 0,16 3,20 4,4 9,7 16,7 7,1 15,0 24,-2 9,-2 18,-5 26,-8 9,-3 17,-6 24,-10 7,-3 13,-6 17,-8 3,-1 6,0 7,4 1,3 -1,7 -5,10 -4,4 -10,7 -17,11 -7,3 -15,7 -24,10 -9,3 -18,6 -26,9 -9,2 -17,4 -24,6 -7,1 -13,2 -16,2 -4,0 -8,-2 -11,-4 -3,-2 -6,-5 -9,-9 -3,-3 -5,-7 -7,-11 -2,-4 -4,-7 -6,-10 -2,-5 -4,-7 -6,-7 -1,0 -4,1 -8,3 -8,4 -15,8 -21,12 -6,3 -12,6 -17,9 -5,3 -11,5 -17,7 -6,2 -12,4 -20,6 -4,1 -9,1 -13,0 -5,-2 -9,-4 -13,-8 -4,-3 -7,-8 -8,-12 -1,-2 -1,-4 -1,-6 -1,1 -2,1 -3,2 -9,4 -20,9 -31,13 -11,4 -22,8 -33,12 -11,4 -19,6 -24,7 -5,1 -10,2 -14,2 -4,0 -9,-1 -13,-2 -9,-3 -16,-9 -20,-17 -2,-4 -3,-8 -2,-13 -3,2 -6,3 -9,5 -13,7 -27,13 -43,20 -16,7 -32,12 -48,17 -16,5 -30,8 -41,9 -10,1 -17,-1 -22,-3 -5,-3 -8,-7 -10,-12 -2,-5 -2,-11 -2,-19 1,-7 1,-15 2,-23 1,-3 2,-6 3,-8 2,-2 3,-5 4,-8 -7,3 -15,7 -23,11l-23 14c-7,5 -15,9 -22,13 -7,4 -15,7 -22,9 -6,1 -11,1 -15,-1 -4,-2 -7,-5 -10,-9 -4,-6 -5,-12 -5,-18 -9,3 -18,5 -27,8 -12,3 -24,7 -36,10 -12,3 -25,6 -38,9 -13,3 -27,6 -42,10 -7,2 -14,2 -20,2 -5,0 -12,-2 -19,-6 -10,-5 -15,-12 -17,-20 -1,-4 -1,-8 -1,-12l0 0zm253 -5c11,-5 22,-11 33,-18 11,-7 22,-15 32,-22 3,-3 5,-5 4,-8 -1,-2 -2,-4 -5,-5 -3,-1 -6,-2 -10,-2 -4,0 -7,0 -10,1 -12,4 -23,10 -33,17 -10,7 -18,15 -25,22 -5,6 -7,10 -8,13 -1,3 -1,5 1,6 2,1 4,1 8,0 4,-1 8,-2 13,-5l0 0zm-156 -37c1,-2 1,-3 1,-4 -1,-1 -2,-2 -3,-2 -1,0 -3,-1 -5,-1l-4 0c-9,1 -18,4 -26,8 -8,5 -15,10 -21,17 5,-2 10,-4 17,-5 6,-2 12,-4 18,-5 6,-2 11,-3 15,-5 4,-1 7,-2 8,-3l0 0zm559 44c4,-1 10,-3 17,-5 7,-2 14,-5 22,-9 7,-3 15,-7 23,-11 8,-4 14,-8 20,-13 9,-7 13,-12 11,-15 -2,-2 -7,-2 -17,2 -14,6 -28,13 -40,22 -13,9 -24,18 -35,29l0 0zm-72 -93c-2,3 -4,5 -7,7l-8 7c-3,2 -5,5 -7,7 -2,3 -3,6 -4,9 -1,1 -2,2 -3,3 -2,1 -3,1 -5,1 -2,0 -4,-1 -6,-2 -2,-1 -3,-2 -5,-5 -2,-4 -3,-8 -2,-13 1,-5 3,-9 6,-13 3,-4 6,-8 10,-12 4,-4 7,-6 11,-8 4,-2 7,-3 11,-2 3,1 6,2 8,5 2,2 4,5 4,8 1,3 0,6 -2,8l0 0z"/>
  </g>
 </g>
</svg>
