<?xml version="1.0" encoding="UTF-8"?>
<svg id="Capa_1" data-name="Capa 1" xmlns="http://www.w3.org/2000/svg" viewBox="0 0 834.01 323.91">
  <defs>
    <style>
      .cls-1 {
        fill: #fff;
      }
    </style>
  </defs>
  <path class="cls-1" d="M831.61,3.63c-7.69-7.11-25.96,7.12-34.47,26.79-8.51,19.69-17.47,20.04-25.68,26.67-8.2,6.62-29.23,29.55-36.17,42.87-6.94,13.33-19.25,43.39-32.31,40.52-13.06-2.88-24.63,8.69-42.04,28.3-12.43,14-36.9-11.33-9.41-21.36,37.79-13.8,18.3-31.46-5.37-16.54-5.92,3.72-42.68,11.17-47.64,11.36-12.09.45-15.12,1.21-15.98,6.56-1.25,6.35,7.04,8.23,13.44,8.51,9.78.45,5.96,19.49-2.06,13.22-6.03-4.71-11.58-6.26-13.13-9.03-3.38,1.03-5.43-11.16-6.52-20.89-.73-6.53-2.07-12.97-3.96-19.26-1.9-6.34-3.97-13.23-3.97-13.24-2.69-8.74-22.07-14.51-19.8-5.25,2.99,12.17,7.37,44.01,1.82,46.21-5.55,2.19-45.32-7.9-46.19-14.83-.87-6.93,8.93-23.56,1.7-19.62-7.23,3.94-20.1,13.53-31.05,27.76-8.57,11.12-39.36,21.79-39.36,21.79,0,0-47.54-23.57-46.08-43.13,1.05-14.18-27.85-46.08-28.1-31.97-.24,14.11,13.29,28.11,5.81,35.73-7.48,7.61-25.29,19.33-37.67,19.24-12.37-.1-68.78-5.63-54.87-10.14,13.92-4.51,37.78-1.93,55.42-9.44,17.63-7.5,24.77-12.63,9.45-16.45-15.34-3.81-48.06,12.05-65.8,8.49-17.75-3.57-31.81,3.36-26.9-6.77,5.04-10.42-4.28-29.72-11.01-20.32-6.71,9.41,7.19,18.65.25,25.69-6.94,7.04-29.91,3.73-27.37,17.27,2.55,13.53,10.52,6.72,13.35,20.89,2.84,14.16,14.65,22.29-1.58,21.89-16.24-.39-14.16-6.51-25.8-15.36-11.64-8.86-46.64-49.56-60.53-26.7,0,0-1.84,48.06-30.21-27.63,0,0-5.08-12.52-12.44-16.04-7.37-3.54-23.38-31.31-27.8-32.29-4.43-.98-23.71-14.92-29.52-31.38C26.27,9.29,17.53-2.31,7.95.39-1.62,3.07-7.69,10.64,20.96,38.19c28.66,27.55,12.77,35.02,29.11,56.48,16.35,21.47,25.42,20.97,25.59,38.44.17,17.47-2.52,12.1-1.51,30.75,1,18.64-.68,33.09,3.86,42.16,4.54,9.07,1.62,32.48-1.69,42.17-3.29,9.69-23.84,42.45-28.05,47.06-4.21,4.62-5.79,5.97-6.01,11.38,0,0-14.99,10.25-4.75,16.23,10.25,5.98,8.38-15.27,8.38-15.27,0,0,13.96-21,21.85-19.95,7.91,1.05,21.75-8.2,25.73-13.86,3.98-5.66,16.42-30.29,32.98-38.27,16.56-7.98-5.62-5.97-11.83-9.15-6.21-3.2-16.58-33.64-7.62-50.17,8.97-16.53,22.34,29.59,29.29,34.88,6.96,5.28,23.88,26.69,35.97,27.04,12.08.34,11.61-9.83-1-27.59-12.62-17.77,31.03,6.47,41.12,17.2,10.1,10.73,10.74,11.54,0,20.71-10.73,9.17-15.12,11.83-11.83,18.39,3.28,6.58,19.99-1.51,21.33-15.29,0,0,21.31-14.17,28.22-16.46,6.91-2.29,29.57-44.72,37-41.25,7.44,3.47-4.66,33.14,11.63,44.27,16.3,11.11,19.49-15.01,41.5-15.14,22.01-.12,22.18-8.69,11.76,27.43,0,0-9.69,16.7-5.15,18.05,4.53,1.34,6.61,6.63,21-22.77,14.4-29.39,26.67-6.12,34.39-5.91,7.72.21,13.96,1.09,0-15.98-13.95-17.07,9.81-31.72,14.55-18.22,4.75,13.49,16.36,28.69,17.87,40.8,1.51,12.09,5.99-16.78,11.26-29.73,5.27-12.97,9.64-19.41,17.41-18.28,7.78,1.14,7.04,17.38,3.73,24.82-3.31,7.45-8.8,15.99,12.41,5.9,21.21-10.1,15.98,19.02,34.42,24.99,18.43,5.96-8-36.68-15.61-52.32-7.62-15.64,40.45,31.1,56.96,27.21,16.51-3.88-33.39-31.64-32.86-42.85.54-11.21,22.74-1.26,36.73,15.49,13.98,16.76,25.09-.01,37.79,10.98,18.38,15.92-30.49,9.99-18.9,22.29,2.69,2.86,53.19,18.66,63.12,28.04,9.94,9.39,18.91,9.49,20.21,3.57,1.21-5.58-1.91-14.8-11.09-19.7-5.64-3.01-47.71-36.77,3.23-37.91,11.75-.26-4.09,7.76-1.76,16.25,2.33,8.48,9.74,6.38,43.85-9.46,30.56-14.2,41.61,8.55,18.68,13.46-22.93,4.92,6.52,11.98,9.58,17.37,3.06,5.39,13.47,27.7,21.16,31.63,7.69,3.92,26.74,6.51,33.42,17.35,6.66,10.85,8.94,14.84,8.94,14.84,0,0-2.39,14.14,4.66,12.56,7.06-1.59,8.23-5.28,0-15.7,0,0-2.01-5.53-6.39-10.58-4.37-5.07-16.33-21.69-20.8-30.07-4.48-8.39-12.57-34.84-9.41-39.59,0,0-4.91-15.35-1.88-23.41,3.03-8.07,6.58-35.38,3.71-41.54-2.87-6.16,4.04-20.58,1.59-32.19-2.45-11.6,15.7-29.36,22.76-33.92,7.06-4.57,9.07-40.18,27.55-54.97,18.48-14.79,30.17-30.12,22.48-37.24ZM274.85,177.87c-5.49,5.53-21.19,18.72-21.19,18.72-7.26,4.45-17,8.21-13.43-5.73,3.59-13.95-.89-17.63,10.53-21.06,11.43-3.42,29.58,2.55,24.09,8.07ZM356.27,182.65c-9.85,9.68-23.69,28.8-40.29,23.17-12.75-4.32-9.69-28.28,21.91-41.71,31.6-13.42,28.22,8.86,18.37,18.54ZM726.84,195.98c-3.83,2.78-12.32,4.03-12.32,4.03,0,0-14.23-1.22-8.03-11.63,6.2-10.41,15.44-17.97,18.13-12.26,2.69,5.71,6.05,17.08,2.21,19.86Z"/>
</svg>