<?xml version="1.0" encoding="UTF-8"?>
<svg id="Capa_1" data-name="Capa 1" xmlns="http://www.w3.org/2000/svg" viewBox="0 0 132.8 48.13">
  <defs>
    <style>
      .cls-1 {
        fill: #fff;
        fill-rule: evenodd;
      }
    </style>
  </defs>
  <path class="cls-1" d="M0,28.03V.54h19.06c1.75,0,3.3.22,4.66.65,1.36.44,2.52,1.07,3.47,1.89.95.82,1.67,1.82,2.18,3,.5,1.18.75,2.52.75,4s-.25,2.82-.75,4c-.5,1.18-1.23,2.19-2.18,3.02-.95.83-2.1,1.47-3.47,1.91-1.36.44-2.91.65-4.66.65h-10.51v8.36H0ZM8.55,13.17h9.74c.56,0,1.07-.12,1.52-.37.45-.24.8-.6,1.06-1.06.26-.46.39-1.01.39-1.66,0-.98-.28-1.74-.85-2.29-.56-.55-1.27-.83-2.12-.83h-9.74v6.2Z"/>
  <path class="cls-1" d="M52.33,28.57c-3.67,0-6.86-.58-9.57-1.73-2.71-1.16-4.8-2.8-6.28-4.95-1.48-2.14-2.21-4.68-2.21-7.6,0-1.46.19-2.83.56-4.1s.92-2.44,1.66-3.5c.73-1.07,1.62-2.01,2.68-2.83,1.05-.82,2.25-1.52,3.58-2.1,1.33-.58,2.8-1.01,4.41-1.31,1.6-.3,3.33-.44,5.18-.44,3.67,0,6.85.58,9.55,1.75,2.7,1.17,4.78,2.82,6.26,4.95,1.48,2.13,2.21,4.66,2.21,7.59,0,1.46-.19,2.83-.56,4.1-.37,1.27-.92,2.44-1.66,3.5-.73,1.07-1.62,2.01-2.66,2.83-1.04.82-2.23,1.52-3.58,2.1-1.35.58-2.82,1.01-4.41,1.31-1.59.3-3.31.44-5.16.44ZM52.33,22.14c.92,0,1.78-.08,2.58-.23.8-.15,1.53-.39,2.21-.69.68-.31,1.29-.69,1.83-1.14.54-.45.99-.96,1.37-1.54.37-.58.65-1.23.85-1.94.19-.72.29-1.49.29-2.31,0-1.67-.38-3.09-1.14-4.25-.76-1.17-1.82-2.06-3.2-2.68-1.37-.62-2.97-.92-4.79-.92-.92,0-1.79.08-2.6.23-.81.15-1.55.39-2.23.69-.68.31-1.29.69-1.83,1.14-.54.45-.99.96-1.37,1.54-.37.58-.65,1.22-.85,1.93-.19.71-.29,1.48-.29,2.33,0,1.67.38,3.09,1.14,4.25.76,1.17,1.83,2.06,3.22,2.68,1.39.62,2.99.92,4.81.92Z"/>
  <path class="cls-1" d="M75.81.54h8.55v17.82l-.05.04-.11.1c-.96.93-1.98,2.03-3.04,3.26-1.02,1.2-2.04,2.47-3.03,3.78-.64.83-1.26,1.66-1.86,2.49h-.46V.54Z"/>
  <path class="cls-1" d="M102.07,21.6v6.43h-12.46c.91-1.12,1.86-2.22,2.85-3.31.65-.74,2.02-2.87,2.03-3.12h7.58Z"/>
  <path class="cls-1" d="M116.2,11.4l7.59-10.86h9.01l-12.74,17.33v10.16h-8.51v-10.16L98.72.54h9.86l7.62,10.86Z"/>
  <path class="cls-1" d="M39.64,42.56c-.27.12-.57.24-.89.36-.69.27-1.45.53-2.26.79-.81.26-1.61.47-2.39.65-.6.15-1.23.28-1.9.38-.66.11-1.31.16-1.94.16s-1.24-.09-1.83-.27c-.59-.18-1.11-.5-1.56-.95-.45-.48-.75-1.07-.88-1.76-.14-.69-.23-1.48-.29-2.35-.03-.72-.09-1.24-.18-1.56-.09-.32-.5-.32-1.22-.02-1.66.69-3.21,1.54-4.67,2.53-1.46.99-2.94,1.97-4.45,2.94-.57.36-1.15.55-1.74.56-.59.02-1.09-.13-1.51-.43-.42-.3-.74-.75-.95-1.33-.21-.59-.24-1.3-.09-2.15-.81.69-1.63,1.37-2.44,2.03-.81.66-1.61,1.34-2.39,2.03-.33.3-.71.65-1.13,1.04-.42.39-.87.72-1.35.99-.48.27-.96.42-1.45.45-.48.03-.96-.17-1.45-.59-.48-.42-.71-.82-.68-1.2.03-.38.17-.82.41-1.33l.75-1.49c.32-.63.69-1.32,1.13-2.05.44-.74.9-1.48,1.38-2.24.48-.75.98-1.44,1.49-2.05.51-.62,1.01-1.13,1.49-1.54.48-.41.93-.62,1.35-.65.33-.03.66.03.99.18.33.15.59.34.77.56.18.23.26.49.25.79-.02.3-.2.6-.56.9-.27.24-.57.45-.9.63-.33.18-.65.39-.95.63-.63.54-1.17,1.16-1.6,1.85s-.87,1.4-1.29,2.12c-.45.81-.61,1.26-.47,1.33s.58-.19,1.33-.79c1.11-.9,2.24-1.79,3.39-2.66l3.43-2.62c.24-.18.49-.38.75-.59.26-.21.52-.37.79-.47.27-.11.55-.14.84-.09.29.05.58.2.88.47.3.3.45.65.45,1.06s-.08.83-.25,1.26c-.17.44-.36.86-.59,1.26-.23.41-.4.76-.52,1.06.75-.27,1.48-.59,2.19-.95.71-.36,1.4-.75,2.08-1.15.68-.41,1.36-.81,2.05-1.2.69-.39,1.4-.74,2.12-1.04,1.2-.48,2.15-.7,2.85-.65.69.05,1.22.29,1.58.72.36.44.59,1.04.68,1.81.09.77.14,1.63.14,2.6,0,.66.21,1.15.63,1.47.42.32.97.51,1.65.59.68.08,1.43.05,2.26-.07.83-.12,1.65-.29,2.46-.5.81-.21,1.58-.44,2.3-.7s1.31-.47,1.76-.65c.15-.06.37-.17.65-.32.04-.02.08-.04.12-.06.27-.55.62-1.1,1.05-1.65.71-.9,1.54-1.69,2.48-2.35.95-.66,1.96-1.15,3.05-1.47,1.08-.32,2.15-.35,3.21-.11.63.15,1.2.46,1.72.93.51.47.8,1.05.86,1.74.09,1.05-.2,1.84-.86,2.35-.66.51-1.51.88-2.55,1.11-1.04.23-2.16.39-3.36.5-1.2.11-2.29.29-3.25.56,0,.06,0,.11-.02.14-.02.03-.02.06-.02.09-.15.54-.02.96.41,1.24.42.29.95.41,1.58.38,1.48-.03,3-.16,4.56-.38,1.57-.23,3.08-.5,4.54-.81,1.46-.32,2.84-.65,4.13-1.02,1.23-.34,2.3-.66,3.21-.95.49-.93,1.16-1.81,2.01-2.64,1.01-.98,2.1-1.83,3.27-2.55,1.17-.72,2.14-1.16,2.89-1.31,1.08-.21,1.94-.2,2.57.05.63.24,1.35.68,2.17,1.31.36.27.64.47.84.59.2.12.37.17.52.14.15-.03.29-.14.41-.34.12-.2.3-.46.54-.79.69-1.02,1.48-2.15,2.37-3.39.89-1.23,1.81-2.48,2.75-3.73.95-1.25,1.91-2.45,2.89-3.59.98-1.14,1.9-2.14,2.78-2.98.18-.15.38-.32.59-.52.21-.2.43-.36.65-.5.23-.14.45-.2.68-.2s.46.12.7.36c.27.3.38.56.32.79-.06.23-.21.47-.45.75-2.53,2.8-4.83,5.68-6.91,8.63-2.08,2.95-4.14,5.98-6.19,9.08-1.14,1.72-1.71,3.01-1.69,3.88.02.87.4,1.45,1.15,1.72.75.27,1.78.29,3.09.05,1.31-.24,2.69-.62,4.15-1.15,1.46-.53,2.91-1.14,4.34-1.85,1.31-.65,2.44-1.28,3.38-1.89.23-.42.48-.82.75-1.21.42-.6.89-1.2,1.4-1.81.36-.42.72-.67,1.06-.75s.73.1,1.15.52c.45.42.59.74.43.95-.17.21-.4.48-.7.81-.9,1.05-1.52,1.97-1.85,2.75-.3.69-.23,1.17.2,1.42.44.26,1.06.35,1.87.27.81-.08,1.76-.25,2.85-.52,1.08-.27,2.14-.58,3.16-.93,1.02-.35,1.93-.68,2.73-.99s1.35-.53,1.65-.65c.13-.06.25-.1.37-.13.04-.05.09-.09.13-.14.6-.66,1.31-1.29,2.12-1.87.81-.59,1.67-1.11,2.57-1.58.9-.47,1.81-.88,2.71-1.24.9-.36,1.75-.65,2.53-.86,1.32-.39,2.41-.32,3.25.2.84.53,1.48,1.44,1.9,2.73.15.51.12,1.02-.09,1.51-.21.5-.35.99-.41,1.47-.15.96-.03,1.66.36,2.1.39.44.94.68,1.65.75.71.06,1.53-.02,2.46-.23.93-.21,1.84-.48,2.73-.81.89-.33,1.72-.67,2.48-1.02.77-.35,1.35-.62,1.74-.84.36-.12.62.02.77.41.09.33-.08.68-.52,1.06-.44.38-1.03.75-1.78,1.11-.75.36-1.6.72-2.53,1.06-.93.35-1.85.65-2.75.9-.9.26-1.73.46-2.48.61-.75.15-1.31.21-1.67.18-.42-.03-.8-.17-1.13-.43-.33-.26-.64-.56-.93-.9-.29-.35-.53-.72-.75-1.11-.21-.39-.41-.75-.59-1.08-.24-.48-.44-.74-.59-.77-.15-.03-.44.08-.86.32-.81.45-1.53.85-2.15,1.2-.62.35-1.21.65-1.78.93-.57.27-1.16.52-1.76.75-.6.23-1.29.44-2.08.65-.42.15-.89.14-1.4-.05-.51-.18-.96-.45-1.35-.81-.39-.36-.68-.79-.86-1.29-.08-.21-.12-.43-.12-.64-.11.06-.23.11-.36.17-.98.45-2.05.9-3.23,1.33-1.17.44-2.32.84-3.43,1.22-1.11.38-1.96.62-2.53.75-.54.15-1.02.22-1.45.2-.42-.02-.89-.1-1.4-.25-.96-.33-1.65-.91-2.05-1.74-.21-.42-.29-.88-.26-1.38-.28.16-.59.34-.93.52-1.32.71-2.81,1.4-4.45,2.08-1.64.68-3.3,1.27-4.99,1.78-1.69.51-3.12.81-4.29.9-1.02.06-1.79-.06-2.3-.36-.51-.3-.87-.72-1.06-1.26-.2-.54-.26-1.19-.2-1.94.06-.75.14-1.57.23-2.44.06-.33.17-.62.34-.88.17-.26.31-.52.43-.79-.78.3-1.57.69-2.35,1.17l-2.35,1.45c-.78.48-1.56.93-2.33,1.35-.77.42-1.54.72-2.33.9-.6.15-1.11.11-1.54-.11-.42-.23-.75-.53-.99-.93-.37-.59-.53-1.22-.49-1.88-.97.3-1.91.57-2.81.82-1.26.35-2.53.68-3.79.99-1.26.32-2.57.63-3.91.95-1.34.32-2.79.67-4.36,1.06-.78.18-1.46.26-2.03.25-.57-.02-1.22-.22-1.94-.61-.99-.51-1.59-1.2-1.78-2.05-.1-.43-.14-.84-.13-1.24ZM65.94,42.02c1.14-.54,2.3-1.18,3.48-1.92,1.17-.74,2.27-1.51,3.3-2.33.36-.3.51-.56.45-.79-.06-.23-.23-.41-.52-.54-.29-.14-.63-.22-1.04-.25-.41-.03-.76.02-1.06.14-1.23.42-2.39,1.02-3.45,1.78-1.07.77-1.92,1.54-2.55,2.33-.48.6-.78,1.07-.88,1.4-.11.33-.08.55.09.65.17.11.44.11.84.02.39-.09.84-.26,1.35-.5ZM49.68,38.18c.12-.18.15-.32.09-.43-.06-.11-.17-.18-.32-.23-.15-.05-.32-.07-.5-.07h-.45c-.93.09-1.84.38-2.71.88-.87.5-1.6,1.09-2.17,1.78.48-.18,1.05-.37,1.72-.56.66-.2,1.3-.38,1.92-.56.62-.18,1.15-.34,1.6-.47.45-.14.72-.25.81-.34ZM107.85,42.79c.45-.12,1.03-.31,1.74-.56.71-.26,1.45-.56,2.24-.93.78-.36,1.57-.75,2.37-1.17.8-.42,1.5-.86,2.1-1.31.96-.78,1.34-1.29,1.13-1.54s-.78-.17-1.72.23c-1.48.6-2.88,1.35-4.2,2.24-1.32.89-2.54,1.9-3.66,3.05ZM100.4,33.08c-.21.27-.46.52-.75.75l-.86.68c-.29.23-.54.47-.77.75-.23.27-.35.59-.38.95-.06.12-.17.21-.34.27-.17.06-.35.08-.54.07-.2-.02-.39-.08-.59-.18-.2-.11-.35-.26-.47-.47-.24-.42-.31-.87-.2-1.35s.3-.95.59-1.4c.29-.45.62-.87.99-1.24.38-.38.75-.67,1.11-.88.39-.21.76-.27,1.11-.18.35.09.63.26.86.52.23.26.37.55.43.88.06.33,0,.62-.18.86Z"/>
</svg>