<?xml version="1.0" encoding="UTF-8"?>
<svg id="Capa_1" data-name="Capa 1" xmlns="http://www.w3.org/2000/svg" viewBox="0 0 1080 479.41">
  <defs>
    <style>
      .cls-1 {
        letter-spacing: .18em;
      }

      .cls-2 {
        letter-spacing: .19em;
      }

      .cls-3, .cls-4 {
        fill: #fff;
      }

      .cls-5 {
        letter-spacing: .19em;
      }

      .cls-6 {
        fill: none;
      }

      .cls-7 {
        letter-spacing: .16em;
      }

      .cls-4 {
        font-family: Montserrat-Thin, Montserrat;
        font-size: 60.67px;
        font-variation-settings: 'wght' 100;
        font-weight: 200;
      }
    </style>
  </defs>
  <circle class="cls-3" cx="121.28" cy="229.45" r="16.85"/>
  <path class="cls-3" d="M474.94,254.69c1.89-.63,3.79-1.58,5.37-2.21,25.83-11.35,39.4-33.39,39.4-63.97,0-23.64-7.56-42.55-23.01-56.43-14.8-13.86-34.66-20.78-58.94-20.78h-101.17c-6.06,0-11.01,4.96-11.01,11.01v22.72c0,6.06,4.96,11.01,11.01,11.01h98.34c12.3,0,22.06,2.84,29.01,9.14,6.61,5.67,9.77,12.93,9.77,23.33,0,5.98-.95,11.04-3.16,14.49-6.3,10.72-18.59,15.77-36.87,15.77h-97.09c-6.06,0-11.01,4.96-11.01,11.01v103.72c0,6.06,4.96,11.01,11.01,11.01h23.98c6.06,0,11.01-4.96,11.01-11.01v-58.98c0-6.08,4.93-11.01,11.01-11.01h39.01c3.78,0,7.3,1.94,9.31,5.14l44.66,70.81c1.9,3.16,5.37,5.05,9.14,5.05h28.7c3.77,0,7.56-2.21,9.46-5.68,2.19-3.77,1.87-7.88-.32-11.33l-47.6-72.81ZM474.94,254.69"/>
  <path class="cls-3" d="M774.96,299.75h-155.69c-6,0-11.03,5.05-11.03,11.35v23.01c0,5.98,5.03,11.04,11.03,11.04h155.69c6.3,0,11.04-5.05,11.04-11.04v-23.01c0-6.3-4.74-11.35-11.04-11.35h0ZM619.26,250.9h155.38c6.31,0,11.35-5.03,11.35-11.01v-23.65c0-5.98-5.04-11.03-11.35-11.03h-155.38c-6,0-11.03,5.05-11.03,11.03v23.65c0,5.98,5.03,11.01,11.03,11.01h0ZM774.96,111.29h-155.69c-6,0-11.03,5.04-11.03,11.02v23.01c0,6.3,5.03,11.35,11.03,11.35h155.69c6.3,0,11.04-5.05,11.04-11.35v-23.01c0-5.98-4.74-11.02-11.04-11.02h0ZM774.96,111.29"/>
  <path class="cls-3" d="M1079.11,329.67l-12.84-30.24-76.99-181.22c-1.9-4.42-5.71-6.94-10.13-6.94h-30.24c-4.37,0-8.51,2.52-10.08,6.94l-22.87,53.69-41.13,96.48-16.02,37.57-1.57,3.71-8.51,20.02c-1.57,3.47-1.28,7.23.95,10.37,1.85,3.19,5.37,5.09,9.13,5.09h26.44c4.85,0,9.18-2.9,11.03-7.32l67.76-161.58,51.5,123.2,16.03,38.33c1.85,4.47,6.23,7.37,11.03,7.37h26.39c3.52,0,6.94-1.85,9.18-5.04,1.9-3.14,2.52-6.94.95-10.41Z"/>
  <text class="cls-4" transform="translate(18.65 451.93)"><tspan class="cls-5" x="0" y="0">DISEÑO Y </tspan><tspan class="cls-7" x="415.75" y="0">C</tspan><tspan class="cls-2" x="467.68" y="0">ON</tspan><tspan class="cls-1" x="590.95" y="0">S</tspan><tspan class="cls-5" x="638.33" y="0">TRU</tspan><tspan class="cls-7" x="797.76" y="0">C</tspan><tspan class="cls-2" x="849.69" y="0">CIÓN</tspan></text>
  <g>
    <path class="cls-3" d="M51.07,229.41c0,27.38,15.62,51.05,38.47,62.64,3.68,1.87,5.99,5.64,5.99,9.76v31.6c0,7.59-7.51,12.96-14.67,10.43C33.74,327.16,0,282.23,0,229.45s33.74-97.76,80.87-114.39c7.15-2.52,14.66,2.85,14.66,10.43v31.52c0,4.13-2.32,7.89-5.99,9.76-22.84,11.59-38.47,35.26-38.47,62.64Z"/>
    <path class="cls-3" d="M190.72,260.55h32.52c7.77,0,13.22,7.87,10.26,15.06-13.08,31.78-39.28,56.79-71.88,68.27-7.13,2.51-14.59-2.89-14.59-10.45v-31.57c0-4.15,2.35-7.91,6.05-9.79,11.71-5.96,21.51-15.08,28.29-26.26,1.98-3.27,5.53-5.25,9.35-5.25Z"/>
    <path class="cls-3" d="M147.03,156.95v-31.47c0-7.55,7.47-12.95,14.59-10.45,32.62,11.48,58.86,36.52,71.94,68.37,2.95,7.18-2.5,15.05-10.27,15.05h-32.45c-3.84,0-7.39-2-9.37-5.29-6.77-11.25-16.64-20.45-28.4-26.42-3.7-1.88-6.06-5.64-6.06-9.8Z"/>
  </g>
  <rect class="cls-6" x="234.32" width="61.83" height="114.43"/>
</svg>