<?xml version="1.0" encoding="UTF-8"?>
<svg id="Capa_1" data-name="Capa 1" xmlns="http://www.w3.org/2000/svg" viewBox="0 0 1080 190.59">
  <defs>
    <style>
      .cls-1 {
        fill: #fff;
      }
    </style>
  </defs>
  <path class="cls-1" d="M63.53,129.57v21.55c0,3.01,3.17,4.96,5.86,3.62l115.34-57.67c2.69-1.35,5.86.61,5.86,3.62v85.86c0,2.23-1.81,4.05-4.05,4.05h-118.96c-2.23,0-4.05-1.81-4.05-4.05v-21.17c0-3.01-3.17-4.96-5.86-3.62l-51.82,25.91c-2.69,1.35-5.86-.61-5.86-3.62v-54.47c0-1.53.87-2.93,2.24-3.62l122.59-61.3c1.37-.69,2.24-2.09,2.24-3.62v-21.57c0-3.01-3.17-4.96-5.86-3.62L5.86,93.53c-2.69,1.35-5.86-.61-5.86-3.62V4.05C0,1.82,1.81,0,4.05,0h118.97c2.23,0,4.05,1.81,4.05,4.05v21.18c0,3.01,3.17,4.96,5.86,3.62L184.73,2.93c2.69-1.35,5.86.61,5.86,3.62v54.48c0,1.53-.87,2.93-2.24,3.62l-122.58,61.3c-1.37.69-2.24,2.09-2.24,3.62Z"/>
  <path class="cls-1" d="M285.88,67.58v55.44c0,2.23,1.81,4.05,4.05,4.05h118.96c2.23,0,4.05,1.81,4.05,4.05v55.43c0,2.23-1.81,4.05-4.05,4.05h-182.5c-2.23,0-4.05-1.81-4.05-4.05V4.05c0-2.23,1.81-4.05,4.05-4.05h182.5c2.23,0,4.05,1.81,4.05,4.05v55.44c0,2.23-1.81,4.05-4.05,4.05h-118.96c-2.23,0-4.05,1.81-4.05,4.05Z"/>
  <path class="cls-1" d="M444.71,4.05v182.5c0,2.23,1.81,4.05,4.05,4.05h55.43c2.23,0,4.05-1.81,4.05-4.05v-25.21c0-1.53.87-2.93,2.24-3.62l55.44-27.73c2.69-1.35,5.86.61,5.86,3.62v52.94c0,2.23,1.81,4.05,4.05,4.05h55.43c2.23,0,4.05-1.81,4.05-4.05V4.05c0-2.23-1.81-4.05-4.05-4.05h-182.48c-2.23,0-4.05,1.81-4.05,4.05ZM508.23,88.76v-21.18c0-2.23,1.81-4.05,4.05-4.05h42.35c4.27,0,5.63,5.76,1.81,7.67l-42.35,21.18c-2.69,1.35-5.86-.61-5.86-3.62Z"/>
  <path class="cls-1" d="M952.94,51.66v15.56c0,2.23,1.81,4.05,4.05,4.05h118.96c2.23,0,4.05,1.81,4.05,4.05v39.53c0,2.23-1.81,4.05-4.05,4.05h-118.96c-2.23,0-4.05,1.81-4.05,4.05v16c0,2.23,1.81,4.05,4.05,4.05h118.96c2.23,0,4.05,1.81,4.05,4.05v39.51c0,2.23-1.81,4.05-4.05,4.05h-182.5c-2.23,0-4.05-1.81-4.05-4.05V4.05c0-2.23,1.81-4.05,4.05-4.05h182.5c2.23,0,4.05,1.81,4.05,4.05v39.53c0,2.23-1.81,4.05-4.05,4.05h-118.96c-2.23,0-4.05,1.81-4.05,4.05Z"/>
  <path class="cls-1" d="M857.65,131.11v55.43c0,2.23-1.81,4.05-4.05,4.05h-182.5c-2.23,0-4.05-1.81-4.05-4.05V4.05c0-2.23,1.81-4.05,4.05-4.05h55.43c2.23,0,4.05,1.81,4.05,4.05v118.97c0,2.23,1.81,4.05,4.05,4.05h118.97c2.23,0,4.05,1.81,4.05,4.05Z"/>
</svg>