<?xml version="1.0" encoding="UTF-8"?>
<svg id="Capa_1" data-name="Capa 1" xmlns="http://www.w3.org/2000/svg" viewBox="0 0 1080 439.66">
  <defs>
    <style>
      .cls-1 {
        fill: #fff;
      }
    </style>
  </defs>
  <g>
    <path class="cls-1" d="M687.2,399.59c4,4.01,4.79,4.28,8.73.22,4.61-4.75,8.77-11.75,13.59-16.66.08-.08,1.85-1.94,3.72-2.21,4.3-.62,5.79.4,5.83,3.74.1,8.93-.43,21.14-.67,30.19-.11,4.04.8,18.17-.3,20.65-1.44,3.28-7.85,2.52-8.79-1.66-1.82-8.13.96-22.36-.1-31.32-.13-1.08-.16-2.14-1.58-2.15-1.97.02-10.22,11.83-14.49,15.13-.86.66-2.06.64-2.91-.04-3.72-2.95-11.88-12.72-13.69-14.77-.6-.44-1.28-.48-1.89-.01-2.13,1.6-.9,23.58-1.18,27.78-.31,4.82-.34,10.68-6.84,8.63-2.49-.79-2.86-3.26-3.07-5.55-.75-8.13.37-16.81.44-24.87.05-5.89-.23-11.62-.44-17.69-.13-3.68-.66-6.08,2.88-6.98,2.28-.58,4.38-1.22,6.65.23,5.86,3.73,10.51,13.71,14.12,17.34Z"/>
    <path class="cls-1" d="M365.47,379.22c7.92-1.43,19.88.43,28.23.5,6.3.05,13.78-1.95,20.02.25,3.64,1.28,4.52,7.2,1.38,8.82-6.79,3.51-20.9-4.91-22.22,7.47-1.17,10.92,1.11,24.81-.12,35.5-.54,4.69-6.63,4.34-8.3,2.11-2.46-3.28-1-36.78-1.43-42.32-2.73-6.8-16.19.03-20.84-3.81-2.62-2.16-.98-7.76,3.27-8.53Z"/>
    <path class="cls-1" d="M563.09,425.71c.72,0,1.36.47,1.55,1.17.62,2.24.12,6.63-.9,7.45-.54.44-4.21.58-4.87.65-13.25,1.36-27.17.35-39.96-.01-6.95-.82-5.56-18.93-5.56-24.8,0-8.8-.71-19.68.31-28.52.34-2.95,2.6-2.8,4.87-2.82,2.15-.02,4.3-.39,4.86,2.98,1.72,10.35-2.2,30.16.39,40.62.46,1.87,2.66,3.38,4.4,3.29h34.93Z"/>
    <path class="cls-1" d="M438.08,380.14h4.35c1.68,0,3.03,1.38,2.98,3.06-.13,4.85.19,12.15.23,13.46.34,13.4-1.66,32.09,17.2,32.21,18.49.12,16.7-17.21,17.14-30.34.05-1.37.45-9.96.25-15.42-.06-1.79,1.31-3.31,3.11-3.41,1.93-.11,4.17-.05,5.65.38.94.27,1.56,1.15,1.55,2.13l-.46,24.95c-.06,3.14-.41,6.27-1.12,9.33-2.02,8.71-6.1,18.11-15.17,20.22-12.57,2.93-27.97,1.42-34.56-11.15-4.61-8.8-4.99-34.2-4.13-42.74.15-1.52,1.44-2.67,2.97-2.67Z"/>
    <path class="cls-1" d="M583.9,381.84h4.35c1.68,0,3.03,1.38,2.98,3.06-.13,4.85.19,12.15.23,13.46.34,13.4-1.66,32.09,17.2,32.21,18.49.12,16.7-17.21,17.14-30.34.05-1.37.45-9.96.25-15.42-.06-1.79,1.31-3.31,3.11-3.41,1.93-.11,4.17-.05,5.65.38.94.27,1.56,1.15,1.55,2.13l-.46,24.95c-.06,3.14-.41,6.27-1.12,9.33-2.02,8.71-6.1,18.11-15.17,20.22-12.57,2.93-27.97,1.42-34.56-11.15-4.61-8.8-4.99-34.2-4.13-42.74.15-1.52,1.44-2.67,2.97-2.67Z"/>
  </g>
  <g>
    <path class="cls-1" d="M604.67,210.12c-1.16-2.3-1.13-5.03.08-7.3,4.38-8.18,18.47-18.67,23.04-24.95,9.86-13.53,16.58-37.2,15.16-54.21-.29-3.52-3.45-6.67-6.96-7.12-6.45-.83-12.72.4-19.3,1.62-2.98.55-5.39,2.72-6.25,5.62-2.93,9.87-4,22.65-9.8,32.44-12.33,20.8-50.35,39.4-72.71,48.9-4.88,2.07-33.66,14.95-37.2,16.62-10.14,4.78-21.66,9.06-31.44,12.21-.58.19-1.15.37-1.73.55-11.22,3.53-18.73,14.04-18.28,25.75,0,.05,0,.09,0,.14.45,11.82,1.66,33.43,2.44,43.89,1.53,20.45,13.12,16.39,24.92,14.03,14.73-2.95,4.28-48.12,22.53-63.57,10.51-8.9,50.56-22.74,64.35-22.12,19.15.87,43.4,19.08,49.09,37.12,8.4,26.61-5.74,58.5,34.02,47.52,3.07-.85,5.34-3.45,5.79-6.59,2.31-15.84-6.51-55.67-10.87-65.34-6.6-14.61-20.25-22.01-26.9-35.21Z"/>
    <path class="cls-1" d="M462.13,210.46c15.79-7.24,15.89-21.2,15.81-24.46-.57-23.29,5.41-49.06.67-65.13-1.21-4.11-8.38-6.08-16.01-5.16-6.93.84-13.5,1.16-15.97,7.3-4,9.96-5.63,41-5.41,73.39.04,5.51.5,23.42,20.91,14.06Z"/>
  </g>
  <path class="cls-1" d="M306.52,115.72c8.04-.24,29.18.75,36.4,2.23,15.06,3.07,20.27,20.66,24.38,33.83,14.27,45.71,29.53,103.02,41.3,149.71.61,2.42,1.98,6.17,2.3,9.52.31,3.3-1.97,6.29-5.16,6.96-8.11,1.72-21.36,3.79-25.52-1.97-7.31-10.12-10.74-48.47-16.89-63.13-2.97-7.08-4.84-13.02-13.23-13.76-12.88-1.13-86.09,27.6-92.87,38.72-5.76,9.44-6.56,28.37-12.75,39.16-2.55,4.45-8.66,5.62-15.52,5.19-9.21-.58-13.95-1.1-13.63-9.73.49-13,10.68-48.63,14.24-62.81,8.18-32.6,19.82-83.31,33.28-112.77,8.53-18.68,25.18-20.58,43.67-21.13ZM341.64,202.52c5.46-6.76-1.97-38.91-7.16-46.63-8.13-12.1-31.05-12.09-40.8-3.41-5.39,4.8-25.6,62.68-24.18,68.67.85,3.55,5.76,6.8,9.02,7.6,9.57,2.36,56.61-18.18,63.11-26.24Z"/>
  <path class="cls-1" d="M854.08,278.2c-16.77,31.96-49.64,43.73-83.34,43.95-33.7-.22-66.57-11.99-83.34-43.95-16.34-31.16-17.68-121.1-14.61-151.35.54-5.37,5.11-9.43,10.52-9.43h15.41c5.94,0,10.74,4.89,10.57,10.84-.47,17.17.68,43.01.8,47.67,1.22,47.38-5.86,113.45,60.66,114.06,66.52-.61,59.44-66.67,60.66-114.06.12-4.66,1.27-30.5.8-47.67-.17-5.94,4.62-10.84,10.57-10.84h15.41c5.4,0,9.97,4.06,10.52,9.43,3.07,30.25,1.73,120.19-14.61,151.35Z"/>
  <path class="cls-1" d="M1070.08,300.93c.59.84,10.78,11.49,6.95,17.77-2.09,3.46-8.82,3.46-11.01,3.46l-12.43-.02c-3.7,0-8.66-2.07-11.06-4.55-15.9-16.36-28.15-42.17-44.77-55.58-3.39-2.73-6.41-4.62-10.86-4.78-4.45.16-7.47,2.05-10.86,4.78-16.62,13.4-28.87,39.21-44.77,55.58-2.4,2.48-7.37,4.55-11.06,4.55l-12.43.02c-2.2,0-8.92,0-11.01-3.46-3.83-6.28,6.36-16.93,6.95-17.77,14.37-20.76,53.92-61.04,55.27-79.11.96-12.72-48.31-71.73-61.6-90.03-6.31-8.65-1.99-12.88,1.45-13.76,7.91-2.05,12.69-1.53,19.98-1.6,4.42-.05,8.69,1.48,11.79,4.26,10.34,9.24,24.09,32.5,29.49,38.92,4.73,5.67,11.87,19.72,20.42,26.26,3.67,2.81,9.11,2.81,12.78,0,8.55-6.54,15.69-20.59,20.42-26.26,5.4-6.42,19.15-29.68,29.49-38.92,3.1-2.78,7.37-4.3,11.79-4.26,7.29.07,13.16-.96,21.07,1.09,3.44.89,6.67,5.63.36,14.27-13.29,18.3-62.56,77.31-61.6,90.03,1.34,18.07,40.89,58.35,55.27,79.11Z"/>
  <path class="cls-1" d="M188.2,116.52c2.45.02,8.65,1.26,9.45,7.19,1.16,8.59,0,16.93-.21,25.37-1.56,63.36,13.4,148.41-67.32,168.51-47.01,11.71-106.46,2.66-125.1-47.48-3.52-9.47-5.85-18.71-4.75-23.27s5.14-4.81,16.09-5.12c25.95-.72,17.33,10.13,29.6,27.31,17.59,24.63,69.92,30.43,91.69,7.59,17.67-18.54,20.44-70.36,20.34-98.64-.04-10.25.36-17.53.39-19.2.22-11.72.17-22.86,1.3-34.57.32-3.35,4.38-7.81,7.76-7.78l20.75.08Z"/>
  <path class="cls-1" d="M796.18,203.03c0,7.87-3.57,14.9-9.18,19.57-4.41,3.67-8.39,5.87-14.57,5.87-7.33,0-16.32-3.39-20.96-8.36-4.25-4.55-6.16-10.37-6.16-17.08,0-3.46,1.54-10.22,3.36-12.92,5.45-8.09,12.34-12.17,22.93-12.17,8.55,0,17.24,2.92,20.88,9.99,2.14,4.15,3.71,9.61,3.71,15.1Z"/>
</svg>