<?xml version="1.0" encoding="UTF-8"?>
<svg id="Capa_1" data-name="Capa 1" xmlns="http://www.w3.org/2000/svg" viewBox="0 0 1080 394.24">
  <defs>
    <style>
      .cls-1 {
        fill: #fff;
      }
    </style>
  </defs>
  <g>
    <g>
      <path class="cls-1" d="M39.55,94.88c0,51,41.35,92.35,92.35,92.35,0-51-41.34-92.35-92.35-92.35Z"/>
      <path class="cls-1" d="M145.97,187.23c51.01,0,92.36-41.35,92.36-92.35-51.01,0-92.36,41.35-92.36,92.35Z"/>
    </g>
    <path class="cls-1" d="M139.73,0c-36.5,35.63-37.2,94.1-1.57,130.6,36.5-35.63,37.21-94.09,1.57-130.6Z"/>
  </g>
  <g>
    <path class="cls-1" d="M0,346.21v39.74h39.74c0-21.95-17.79-39.74-39.74-39.74Z"/>
    <path class="cls-1" d="M277.88,226.98v-39.74c-54.09,0-103.11,21.61-138.94,56.66C103.11,208.85,54.09,187.23,0,187.23v39.74c44.38,0,84.5,18.19,113.34,47.52-7.9,11.64-14.59,24.17-19.91,37.39-21.84-27.52-55.57-45.17-93.44-45.17v39.74c41.89,0,76.2,32.39,79.26,73.5-.06,1.99-.1,3.99-.1,5.99h40.06c0-2.18-.06-4.35-.18-6.5,1.03-25.62,8.12-49.68,19.89-70.78,11.76,21.1,18.86,45.16,19.89,70.78-.12,2.15-.18,4.32-.18,6.5h40.06c0-2-.04-4-.1-5.99,3.06-41.1,37.38-73.5,79.26-73.5v-39.74c-37.86,0-71.6,17.65-93.44,45.17-5.32-13.23-12.01-25.75-19.91-37.39,28.84-29.33,68.96-47.52,113.34-47.52Z"/>
    <path class="cls-1" d="M238.14,385.95h39.74v-39.74c-21.95,0-39.74,17.8-39.74,39.74Z"/>
  </g>
  <g>
    <path class="cls-1" d="M419.72,199.17v49.25h-6.37v-9.74c-2,3.31-4.63,5.84-7.91,7.58-3.28,1.75-6.98,2.62-11.1,2.62-4.62,0-8.8-1.06-12.55-3.18-3.75-2.12-6.68-5.09-8.8-8.89-2.12-3.81-3.18-8.15-3.18-13.01s1.06-9.21,3.18-13.01c2.12-3.81,5.06-6.76,8.8-8.85,3.75-2.09,7.93-3.14,12.55-3.14,3.99,0,7.6.83,10.81,2.48,3.21,1.65,5.85,4.07,7.91,7.26v-9.36h6.65ZM404.23,240.6c2.78-1.59,4.96-3.85,6.55-6.79,1.59-2.93,2.39-6.27,2.39-10.02s-.8-7.08-2.39-10.02c-1.59-2.93-3.78-5.2-6.55-6.79-2.78-1.59-5.88-2.39-9.32-2.39s-6.63.8-9.41,2.39c-2.78,1.59-4.96,3.86-6.55,6.79-1.59,2.93-2.39,6.27-2.39,10.02s.8,7.08,2.39,10.02c1.59,2.93,3.78,5.2,6.55,6.79,2.78,1.59,5.91,2.39,9.41,2.39s6.54-.8,9.32-2.39Z"/>
    <path class="cls-1" d="M483.86,199.17v43.26c0,8.36-2.04,14.56-6.13,18.59-4.09,4.03-10.25,6.04-18.49,6.04-4.56,0-8.88-.67-12.97-2.01-4.09-1.34-7.41-3.2-9.97-5.57l3.37-5.06c2.37,2.12,5.26,3.78,8.66,4.96,3.4,1.18,6.98,1.78,10.72,1.78,6.24,0,10.83-1.45,13.76-4.35,2.93-2.9,4.4-7.41,4.4-13.53v-6.27c-2.06,3.12-4.76,5.49-8.1,7.12-3.34,1.62-7.04,2.43-11.09,2.43-4.62,0-8.82-1.01-12.59-3.04-3.78-2.03-6.74-4.87-8.89-8.52-2.15-3.65-3.23-7.79-3.23-12.41s1.08-8.74,3.23-12.36c2.15-3.62,5.1-6.43,8.85-8.43,3.75-2,7.96-3,12.64-3,4.18,0,7.96.84,11.33,2.53,3.37,1.69,6.09,4.12,8.15,7.3v-9.46h6.37ZM468.32,238.35c2.87-1.53,5.1-3.67,6.69-6.41,1.59-2.75,2.39-5.87,2.39-9.36s-.8-6.6-2.39-9.32c-1.59-2.72-3.81-4.84-6.65-6.37-2.84-1.53-6.07-2.29-9.69-2.29s-6.76.75-9.6,2.25c-2.84,1.5-5.06,3.62-6.65,6.37-1.59,2.75-2.39,5.87-2.39,9.36s.8,6.62,2.39,9.36c1.59,2.75,3.81,4.88,6.65,6.41,2.84,1.53,6.04,2.29,9.6,2.29s6.77-.76,9.64-2.29Z"/>
    <path class="cls-1" d="M515.83,201.32c3.09-1.69,6.91-2.53,11.47-2.53v6.46l-1.59-.09c-5.18,0-9.24,1.59-12.17,4.78-2.93,3.18-4.4,7.65-4.4,13.39v25.09h-6.65v-49.25h6.37v9.64c1.56-3.31,3.89-5.81,6.98-7.49Z"/>
    <path class="cls-1" d="M539.28,199.17h6.65v49.25h-6.65v-49.25Z"/>
    <path class="cls-1" d="M545.93,184.36h6.65l-6.65,10.87h-6.65l6.65-10.87Z"/>
    <path class="cls-1" d="M571.82,245.7c-3.84-2.12-6.85-5.1-9.04-8.94-2.19-3.84-3.28-8.16-3.28-12.97s1.09-9.11,3.28-12.92c2.18-3.81,5.2-6.77,9.04-8.89,3.84-2.12,8.19-3.18,13.06-3.18,4.24,0,8.04.83,11.38,2.48,3.34,1.65,5.98,4.07,7.91,7.26l-4.96,3.37c-1.62-2.43-3.68-4.26-6.18-5.48-2.5-1.22-5.21-1.83-8.15-1.83-3.56,0-6.76.8-9.6,2.39-2.84,1.59-5.06,3.86-6.65,6.79-1.59,2.93-2.39,6.27-2.39,10.02s.8,7.16,2.39,10.07c1.59,2.9,3.81,5.15,6.65,6.74,2.84,1.59,6.04,2.39,9.6,2.39,2.93,0,5.65-.59,8.15-1.78,2.5-1.18,4.56-3,6.18-5.43l4.96,3.37c-1.94,3.18-4.59,5.6-7.96,7.26-3.37,1.65-7.15,2.48-11.33,2.48-4.87,0-9.22-1.06-13.06-3.18Z"/>
    <path class="cls-1" d="M623.64,245.66c-3.81-2.15-6.8-5.13-8.99-8.94-2.19-3.81-3.28-8.11-3.28-12.92s1.09-9.11,3.28-12.92c2.18-3.81,5.18-6.77,8.99-8.89,3.81-2.12,8.08-3.18,12.83-3.18s9.02,1.06,12.83,3.18c3.81,2.12,6.79,5.09,8.94,8.89,2.15,3.81,3.23,8.12,3.23,12.92s-1.08,9.11-3.23,12.92c-2.15,3.81-5.14,6.79-8.94,8.94-3.81,2.15-8.08,3.23-12.83,3.23s-9.02-1.08-12.83-3.23ZM645.88,240.6c2.78-1.59,4.95-3.85,6.51-6.79,1.56-2.93,2.34-6.27,2.34-10.02s-.78-7.08-2.34-10.02c-1.56-2.93-3.73-5.2-6.51-6.79-2.78-1.59-5.91-2.39-9.41-2.39s-6.63.8-9.41,2.39c-2.78,1.59-4.96,3.86-6.55,6.79-1.59,2.93-2.39,6.27-2.39,10.02s.8,7.08,2.39,10.02c1.59,2.93,3.78,5.2,6.55,6.79,2.78,1.59,5.91,2.39,9.41,2.39s6.63-.8,9.41-2.39Z"/>
    <path class="cls-1" d="M678.65,245.14c-2.4-2.5-3.6-5.96-3.6-10.39v-55.8h6.65v55.24c0,2.93.69,5.17,2.06,6.69,1.37,1.53,3.43,2.29,6.18,2.29,1.75,0,3.25-.28,4.49-.84l.47,5.52c-1.94.69-3.93,1.03-5.99,1.03-4.43,0-7.85-1.25-10.25-3.75Z"/>
    <path class="cls-1" d="M747.98,199.17v49.25h-6.37v-9.74c-2,3.31-4.63,5.84-7.91,7.58-3.28,1.75-6.98,2.62-11.1,2.62-4.62,0-8.8-1.06-12.55-3.18-3.75-2.12-6.68-5.09-8.8-8.89-2.12-3.81-3.18-8.15-3.18-13.01s1.06-9.21,3.18-13.01c2.12-3.81,5.06-6.76,8.8-8.85,3.75-2.09,7.93-3.14,12.55-3.14,3.99,0,7.6.83,10.81,2.48,3.21,1.65,5.85,4.07,7.91,7.26v-9.36h6.65ZM732.49,240.6c2.78-1.59,4.96-3.85,6.55-6.79,1.59-2.93,2.39-6.27,2.39-10.02s-.8-7.08-2.39-10.02c-1.59-2.93-3.78-5.2-6.55-6.79-2.78-1.59-5.88-2.39-9.32-2.39s-6.63.8-9.41,2.39c-2.78,1.59-4.96,3.86-6.55,6.79-1.59,2.93-2.39,6.27-2.39,10.02s.8,7.08,2.39,10.02c1.59,2.93,3.78,5.2,6.55,6.79,2.78,1.59,5.91,2.39,9.41,2.39s6.54-.8,9.32-2.39Z"/>
  </g>
  <g>
    <path class="cls-1" d="M451.01,280.79v69.92c0,29.02-14.25,43.53-42.76,43.53-7.51,0-14.69-1-21.53-3.01-6.84-2.01-12.48-4.92-16.9-8.72l8.64-14.51c3.5,2.98,7.77,5.35,12.81,7.1,5.04,1.75,10.34,2.62,15.9,2.62,8.44,0,14.64-2.03,18.6-6.1,3.96-4.07,5.94-10.32,5.94-18.75v-3.86c-3.09,3.4-6.84,6-11.27,7.79-4.43,1.8-9.21,2.7-14.35,2.7-11.01,0-19.68-3.03-26.01-9.11-6.33-6.07-9.49-15.18-9.49-27.32v-42.29h19.29v39.82c0,7.31,1.67,12.79,5.02,16.44,3.34,3.65,8.1,5.48,14.28,5.48,6.89,0,12.37-2.11,16.44-6.33,4.06-4.22,6.1-10.34,6.1-18.37v-37.05h19.29Z"/>
    <path class="cls-1" d="M490.83,358.89c-6.69-3.6-11.91-8.62-15.67-15.05-3.76-6.43-5.63-13.71-5.63-21.84s1.88-15.38,5.63-21.76c3.76-6.38,8.98-11.37,15.67-14.97,6.69-3.6,14.2-5.4,22.54-5.4s16,1.8,22.69,5.4c6.69,3.6,11.91,8.59,15.67,14.97,3.76,6.38,5.63,13.64,5.63,21.76s-1.88,15.41-5.63,21.84c-3.76,6.43-8.98,11.45-15.67,15.05-6.69,3.6-14.25,5.4-22.69,5.4s-15.85-1.8-22.54-5.4ZM530.96,340.68c4.63-4.73,6.95-10.96,6.95-18.68s-2.32-13.94-6.95-18.68c-4.63-4.73-10.5-7.1-17.6-7.1s-12.94,2.37-17.52,7.1c-4.58,4.73-6.87,10.96-6.87,18.68s2.29,13.95,6.87,18.68c4.58,4.73,10.42,7.1,17.52,7.1s12.97-2.37,17.6-7.1Z"/>
    <path class="cls-1" d="M623.58,279.86v18.37c-1.65-.31-3.14-.46-4.48-.46-7.51,0-13.38,2.19-17.6,6.56-4.22,4.38-6.33,10.68-6.33,18.91v39.98h-19.29v-82.43h18.37v12.04c5.56-8.64,15.33-12.97,29.33-12.97Z"/>
    <path class="cls-1" d="M639.94,280.79h19.29v82.43h-19.29v-82.43Z"/>
    <path class="cls-1" d="M813.28,288.89c6.07,6.02,9.11,15.05,9.11,27.09v47.23h-19.29v-44.76c0-7.2-1.6-12.63-4.79-16.28-3.19-3.65-7.77-5.48-13.74-5.48-6.48,0-11.68,2.14-15.59,6.41-3.91,4.27-5.87,10.37-5.87,18.29v41.83h-19.29v-44.76c0-7.2-1.6-12.63-4.78-16.28-3.19-3.65-7.77-5.48-13.74-5.48-6.59,0-11.81,2.11-15.67,6.33-3.86,4.22-5.79,10.34-5.79,18.37v41.83h-19.29v-82.43h18.37v10.5c3.09-3.7,6.95-6.53,11.58-8.49,4.63-1.95,9.78-2.93,15.44-2.93,6.17,0,11.65,1.16,16.44,3.47,4.79,2.32,8.57,5.74,11.35,10.26,3.4-4.32,7.77-7.69,13.12-10.11,5.35-2.42,11.27-3.63,17.75-3.63,10.39,0,18.62,3.01,24.7,9.03Z"/>
    <path class="cls-1" d="M926.88,280.79v82.43h-18.37v-10.5c-3.09,3.7-6.95,6.56-11.58,8.57-4.63,2.01-9.62,3.01-14.97,3.01-11.01,0-19.68-3.06-26.01-9.18-6.33-6.12-9.49-15.2-9.49-27.24v-47.08h19.29v44.45c0,7.41,1.67,12.94,5.02,16.59,3.34,3.65,8.1,5.48,14.28,5.48,6.89,0,12.37-2.13,16.44-6.41,4.06-4.27,6.1-10.42,6.1-18.45v-41.68h19.29Z"/>
    <path class="cls-1" d="M1023.97,288.97c6.28,6.07,9.42,15.08,9.42,27.01v47.23h-19.29v-44.76c0-7.2-1.7-12.63-5.09-16.28-3.4-3.65-8.23-5.48-14.51-5.48-7.1,0-12.71,2.14-16.82,6.41-4.12,4.27-6.17,10.42-6.17,18.45v41.68h-19.29v-82.43h18.37v10.65c3.19-3.81,7.2-6.69,12.04-8.64,4.84-1.95,10.29-2.93,16.36-2.93,10.39,0,18.73,3.04,25.01,9.11Z"/>
    <path class="cls-1" d="M1058.85,263.89c-2.37-2.21-3.55-4.96-3.55-8.26s1.18-6.04,3.55-8.26c2.37-2.21,5.3-3.32,8.8-3.32s6.43,1.06,8.8,3.16c2.37,2.11,3.55,4.76,3.55,7.95,0,3.4-1.16,6.25-3.47,8.57-2.32,2.32-5.27,3.47-8.88,3.47s-6.43-1.1-8.8-3.32ZM1057.93,280.79h19.29v82.43h-19.29v-82.43Z"/>
  </g>
</svg>