<?xml version="1.0" encoding="UTF-8"?>
<!DOCTYPE svg PUBLIC "-//W3C//DTD SVG 1.1//EN" "http://www.w3.org/Graphics/SVG/1.1/DTD/svg11.dtd">
<!-- Creator: CorelDRAW -->
<svg xmlns="http://www.w3.org/2000/svg" xml:space="preserve" width="35.1363mm" height="7.559mm" version="1.1" style="shape-rendering:geometricPrecision; text-rendering:geometricPrecision; image-rendering:optimizeQuality; fill-rule:evenodd; clip-rule:evenodd"
viewBox="0 0 1276 275"
 xmlns:xlink="http://www.w3.org/1999/xlink"
 xmlns:xodm="http://www.corel.com/coreldraw/odm/2003">
 <defs>
  <style type="text/css">
   <![CDATA[
    .fil0 {fill:white}
   ]]>
  </style>
 </defs>
 <g id="Capa_x0020_1">
  <metadata id="CorelCorpID_0Corel-Layer"/>
  <path class="fil0" d="M0 269l0 -264 183 0c17,0 32,2 45,6 13,4 24,10 33,18 9,8 16,17 21,29 5,11 7,24 7,38 0,14 -2,27 -7,38 -5,11 -12,21 -21,29 -9,8 -20,14 -33,18 -13,4 -28,6 -45,6l-101 0 0 80 -82 0 0 0zm82 -143l94 0c5,0 10,-1 15,-4 4,-2 8,-6 10,-10 2,-4 4,-10 4,-16 0,-9 -3,-17 -8,-22 -5,-5 -12,-8 -20,-8l-94 0 0 60 0 0zm421 148c-35,0 -66,-6 -92,-17 -26,-11 -46,-27 -60,-48 -14,-21 -21,-45 -21,-73 0,-14 2,-27 5,-39 4,-12 9,-23 16,-34 7,-10 16,-19 26,-27 10,-8 22,-15 34,-20 13,-6 27,-10 42,-13 15,-3 32,-4 50,-4 35,0 66,6 92,17 26,11 46,27 60,48 14,20 21,45 21,73 0,14 -2,27 -5,39 -4,12 -9,23 -16,34 -7,10 -16,19 -26,27 -10,8 -21,15 -34,20 -13,6 -27,10 -42,13 -15,3 -32,4 -50,4l0 0zm0 -62c9,0 17,-1 25,-2 8,-1 15,-4 21,-7 7,-3 12,-7 18,-11 5,-4 10,-9 13,-15 4,-6 6,-12 8,-19 2,-7 3,-14 3,-22 0,-16 -4,-30 -11,-41 -7,-11 -17,-20 -31,-26 -13,-6 -29,-9 -46,-9 -9,0 -17,1 -25,2 -8,1 -15,4 -21,7 -7,3 -12,7 -18,11 -5,4 -10,9 -13,15 -4,6 -6,12 -8,19 -2,7 -3,14 -3,22 0,16 4,30 11,41 7,11 18,20 31,26 13,6 29,9 46,9l0 0zm614 -103l73 -104 87 0 -122 167 0 98 -82 0 0 -98 -123 -167 95 0 73 104zm-388 -104l82 0 0 171 0 0 -1 1c-9,9 -19,20 -29,31 -10,12 -20,24 -29,36 -6,8 -12,16 -18,24l-4 0 0 -264zm252 202l0 62 -120 0c9,-11 18,-21 27,-32 6,-7 19,-28 20,-30l73 0z"/>
 </g>
</svg>
