<?xml version="1.0" encoding="UTF-8"?>
<svg id="Capa_1" data-name="Capa 1" xmlns="http://www.w3.org/2000/svg" viewBox="0 0 229.55 35.87">
  <defs>
    <style>
      .cls-1 {
        fill: #fff;
        fill-rule: evenodd;
      }
    </style>
  </defs>
  <path class="cls-1" d="M.94,27.71V8.16h13.56c1.24,0,2.35.16,3.31.47.97.31,1.79.76,2.47,1.34.68.58,1.19,1.3,1.55,2.14.36.84.53,1.79.53,2.85s-.18,2.01-.53,2.85c-.36.84-.87,1.56-1.55,2.15-.68.59-1.5,1.05-2.47,1.36-.97.31-2.07.47-3.31.47h-7.48v5.94H.94ZM7.02,17.14h6.93c.4,0,.76-.09,1.08-.26.32-.17.57-.42.75-.75.18-.33.27-.72.27-1.18,0-.69-.2-1.24-.6-1.63-.4-.39-.9-.59-1.51-.59h-6.93v4.41Z"/>
  <path class="cls-1" d="M38.16,28.1c-2.61,0-4.88-.41-6.81-1.23-1.93-.82-3.41-1.99-4.46-3.52-1.05-1.52-1.57-3.33-1.57-5.41,0-1.04.13-2.01.4-2.92.26-.9.66-1.73,1.18-2.49.52-.76,1.15-1.43,1.9-2.01.75-.58,1.6-1.08,2.55-1.49.95-.41,1.99-.72,3.14-.93,1.14-.21,2.37-.31,3.68-.31,2.61,0,4.88.42,6.79,1.25,1.92.83,3.4,2,4.45,3.52,1.05,1.52,1.58,3.31,1.58,5.4,0,1.04-.13,2.01-.4,2.92-.26.9-.66,1.73-1.18,2.49-.52.76-1.15,1.43-1.89,2.01-.74.58-1.59,1.08-2.55,1.49-.96.41-2,.72-3.14.93-1.13.21-2.36.32-3.67.32ZM38.16,23.52c.66,0,1.27-.05,1.84-.16.57-.11,1.09-.27,1.58-.49.48-.22.92-.49,1.3-.81.38-.32.71-.68.97-1.1.26-.41.47-.87.6-1.38s.21-1.06.21-1.64c0-1.19-.27-2.2-.81-3.03-.54-.83-1.3-1.47-2.27-1.9-.98-.44-2.11-.66-3.41-.66-.66,0-1.27.05-1.85.16-.58.11-1.1.27-1.59.49-.48.22-.92.49-1.3.81-.38.32-.71.68-.97,1.1-.26.41-.47.87-.6,1.37-.14.5-.21,1.05-.21,1.66,0,1.19.27,2.2.81,3.03.54.83,1.3,1.47,2.29,1.9.99.44,2.13.66,3.42.66Z"/>
  <path class="cls-1" d="M54.87,27.71V8.16h6.08v14.98h12.6v4.57h-18.68Z"/>
  <path class="cls-1" d="M83.6,15.88l5.4-7.73h6.41l-9.07,12.33v7.23h-6.05v-7.23l-9.12-12.33h7.01l5.42,7.73Z"/>
  <path class="cls-1" d="M135.42,22.63c-.28.12-.57.24-.9.37-.7.27-1.46.54-2.28.8-.82.26-1.63.48-2.42.66-.61.15-1.25.28-1.92.39-.67.11-1.32.16-1.96.16s-1.25-.09-1.85-.27c-.59-.18-1.12-.5-1.57-.96-.46-.49-.75-1.08-.89-1.78-.14-.7-.24-1.49-.3-2.37-.03-.73-.09-1.25-.18-1.57-.09-.32-.5-.33-1.23-.02-1.67.7-3.25,1.55-4.72,2.56-1.48,1-2.97,1.99-4.49,2.97-.58.37-1.16.56-1.76.57-.59.02-1.1-.13-1.53-.43s-.75-.75-.96-1.35c-.21-.59-.24-1.32-.09-2.17-.82.7-1.64,1.38-2.46,2.05-.82.67-1.63,1.35-2.42,2.05-.33.3-.71.65-1.14,1.05-.43.4-.88.73-1.37,1-.49.27-.97.43-1.46.46-.49.03-.97-.17-1.46-.59-.49-.43-.71-.83-.68-1.21.03-.38.17-.83.41-1.35l.75-1.51c.32-.64.7-1.33,1.14-2.08.44-.75.9-1.5,1.39-2.26.49-.76.99-1.45,1.51-2.08.52-.62,1.02-1.14,1.51-1.55.49-.41.94-.63,1.37-.66.33-.03.67.03,1,.18.33.15.59.34.78.57.18.23.27.49.25.8-.02.3-.21.61-.57.91-.27.24-.58.46-.91.64-.33.18-.65.4-.96.64-.64.55-1.18,1.17-1.62,1.87-.44.7-.87,1.41-1.3,2.14-.46.82-.62,1.27-.48,1.35s.59-.19,1.35-.8c1.13-.91,2.27-1.81,3.42-2.69l3.47-2.65c.24-.18.49-.38.75-.59.26-.21.52-.37.8-.48.27-.11.56-.14.84-.09.29.05.59.21.89.48.3.3.46.66.46,1.07s-.08.84-.25,1.28c-.17.44-.37.87-.59,1.28-.23.41-.4.77-.52,1.07.76-.27,1.5-.59,2.21-.96.71-.37,1.41-.75,2.1-1.16.68-.41,1.38-.81,2.08-1.21.7-.4,1.41-.75,2.14-1.05,1.22-.49,2.18-.71,2.87-.66.7.05,1.23.29,1.6.73.37.44.59,1.05.68,1.83.09.78.14,1.65.14,2.62,0,.67.21,1.16.64,1.48.43.32.98.52,1.67.59.68.08,1.44.05,2.28-.07.84-.12,1.67-.29,2.49-.5.82-.21,1.6-.45,2.33-.71.73-.26,1.32-.48,1.78-.66.15-.06.37-.17.66-.32.04-.02.08-.04.12-.06.27-.56.63-1.11,1.06-1.67.71-.91,1.55-1.7,2.51-2.37.96-.67,1.98-1.16,3.08-1.48,1.1-.32,2.18-.36,3.24-.11.64.15,1.22.46,1.73.94.52.47.81,1.06.87,1.76.09,1.06-.2,1.86-.87,2.37-.67.52-1.53.89-2.58,1.12-1.05.23-2.18.4-3.4.5-1.22.11-2.31.3-3.29.57,0,.06,0,.11-.02.14-.02.03-.02.06-.02.09-.15.55-.02.97.41,1.25.43.29.96.42,1.6.39,1.49-.03,3.03-.16,4.61-.39,1.58-.23,3.11-.5,4.59-.82,1.48-.32,2.87-.66,4.18-1.03,1.25-.35,2.33-.67,3.24-.96.49-.94,1.17-1.83,2.03-2.67,1.02-.99,2.12-1.85,3.31-2.58,1.19-.73,2.16-1.17,2.92-1.32,1.1-.21,1.96-.2,2.6.05.64.24,1.37.68,2.19,1.32.37.27.65.47.84.59.2.12.37.17.52.14.15-.03.29-.14.41-.34.12-.2.3-.46.55-.8.7-1.03,1.5-2.18,2.4-3.42.9-1.25,1.83-2.5,2.78-3.76.96-1.26,1.93-2.47,2.92-3.63.99-1.16,1.92-2.16,2.81-3.01.18-.15.38-.33.59-.52.21-.2.43-.37.66-.5.23-.14.46-.21.68-.21s.46.12.71.36c.27.3.38.57.32.8-.06.23-.21.48-.46.75-2.56,2.83-4.88,5.73-6.98,8.72-2.1,2.98-4.18,6.04-6.25,9.17-1.16,1.73-1.73,3.04-1.71,3.92.02.88.4,1.46,1.16,1.73.76.27,1.8.29,3.13.05,1.32-.24,2.72-.63,4.2-1.16,1.48-.53,2.94-1.16,4.38-1.87,1.32-.66,2.46-1.29,3.42-1.91.23-.42.49-.83.76-1.22.43-.61.9-1.22,1.41-1.83.37-.43.72-.68,1.07-.75s.74.1,1.16.52c.46.43.6.75.43.96-.17.21-.4.49-.71.82-.91,1.06-1.54,1.99-1.87,2.78-.3.7-.24,1.18.21,1.44.44.26,1.07.35,1.89.27.82-.08,1.78-.25,2.87-.52,1.1-.27,2.16-.59,3.19-.94,1.03-.35,1.95-.68,2.76-1s1.36-.54,1.67-.66c.13-.06.26-.1.37-.13.04-.05.09-.1.13-.14.61-.67,1.32-1.3,2.14-1.89.82-.59,1.69-1.13,2.6-1.6.91-.47,1.83-.89,2.74-1.25.91-.36,1.76-.65,2.56-.87,1.34-.4,2.43-.33,3.29.21.85.53,1.49,1.45,1.92,2.76.15.52.12,1.03-.09,1.53-.21.5-.35,1-.41,1.48-.15.97-.03,1.68.37,2.12.4.44.95.69,1.67.75.71.06,1.54-.02,2.49-.23.94-.21,1.86-.49,2.76-.82.9-.33,1.73-.68,2.51-1.03.78-.35,1.36-.63,1.76-.84.37-.12.62.02.78.41.09.33-.08.69-.52,1.07-.44.38-1.04.75-1.8,1.12-.76.36-1.61.72-2.56,1.07-.94.35-1.87.65-2.78.91-.91.26-1.75.46-2.51.62-.76.15-1.32.21-1.69.18-.43-.03-.81-.17-1.14-.43-.33-.26-.65-.56-.94-.91-.29-.35-.54-.72-.75-1.12-.21-.4-.41-.76-.59-1.1-.24-.49-.44-.75-.59-.78-.15-.03-.44.08-.87.32-.82.46-1.54.86-2.17,1.21-.62.35-1.22.66-1.8.94-.58.27-1.17.52-1.78.75-.61.23-1.31.45-2.1.66-.43.15-.9.14-1.41-.05-.52-.18-.97-.46-1.37-.82-.4-.37-.68-.8-.87-1.3-.08-.22-.12-.43-.12-.65-.12.06-.24.11-.36.17-.99.46-2.08.91-3.26,1.35-1.19.44-2.34.85-3.47,1.23-1.13.38-1.98.63-2.56.75-.55.15-1.03.22-1.46.21-.43-.02-.9-.1-1.41-.25-.97-.33-1.67-.92-2.08-1.76-.21-.42-.3-.89-.27-1.39-.29.17-.6.34-.94.52-1.34.71-2.84,1.41-4.49,2.1-1.66.68-3.34,1.29-5.04,1.8-1.7.52-3.15.82-4.33.91-1.03.06-1.81-.06-2.33-.37-.52-.3-.87-.73-1.07-1.28-.2-.55-.27-1.2-.21-1.96.06-.76.14-1.58.23-2.46.06-.33.17-.63.34-.89.17-.26.31-.52.43-.8-.79.3-1.58.7-2.37,1.19l-2.37,1.46c-.79.49-1.57.94-2.35,1.37-.78.43-1.56.73-2.35.91-.61.15-1.13.11-1.55-.11-.43-.23-.76-.54-1-.94-.38-.6-.54-1.23-.49-1.9-.98.3-1.93.58-2.84.83-1.28.35-2.56.68-3.83,1-1.28.32-2.59.64-3.95.96-1.35.32-2.82.68-4.4,1.07-.79.18-1.48.27-2.05.25-.58-.02-1.23-.22-1.96-.62-1-.52-1.6-1.21-1.8-2.08-.1-.43-.14-.85-.13-1.26ZM162,22.09c1.16-.55,2.33-1.19,3.51-1.94,1.19-.75,2.3-1.53,3.33-2.35.37-.3.52-.57.46-.8-.06-.23-.24-.41-.52-.55-.29-.14-.64-.22-1.05-.25-.41-.03-.77.02-1.07.14-1.25.43-2.41,1.03-3.49,1.8-1.08.78-1.94,1.56-2.58,2.35-.49.61-.78,1.08-.89,1.41-.11.33-.08.56.09.66.17.11.45.11.84.02.4-.09.85-.26,1.37-.5ZM145.57,18.21c.12-.18.15-.33.09-.43-.06-.11-.17-.18-.32-.23-.15-.05-.32-.07-.5-.07h-.46c-.94.09-1.86.39-2.74.89-.88.5-1.61,1.1-2.19,1.8.49-.18,1.06-.37,1.73-.57.67-.2,1.32-.39,1.94-.57.62-.18,1.16-.34,1.62-.48.46-.14.73-.25.82-.34ZM204.34,22.86c.46-.12,1.04-.31,1.76-.57.71-.26,1.47-.57,2.26-.94.79-.37,1.59-.76,2.4-1.19.81-.43,1.51-.87,2.12-1.32.97-.79,1.35-1.31,1.14-1.55s-.79-.17-1.73.23c-1.49.61-2.91,1.36-4.24,2.26-1.34.9-2.57,1.92-3.7,3.08ZM196.81,13.05c-.21.27-.46.52-.75.75l-.87.68c-.29.23-.55.48-.78.75-.23.27-.36.59-.39.96-.06.12-.17.21-.34.27-.17.06-.35.08-.55.07-.2-.02-.4-.08-.59-.18-.2-.11-.36-.27-.48-.48-.24-.43-.31-.88-.21-1.37s.3-.96.59-1.41c.29-.46.62-.87,1-1.25.38-.38.75-.68,1.12-.89.4-.21.77-.27,1.12-.18.35.09.64.27.87.52.23.26.37.56.43.89.06.33,0,.62-.18.87Z"/>
</svg>