<?xml version="1.0" encoding="UTF-8"?>
<svg id="Capa_1" data-name="Capa 1" xmlns="http://www.w3.org/2000/svg" viewBox="0 0 1080 422.77">
  <defs>
    <style>
      .cls-1 {
        fill: #fff;
      }
    </style>
  </defs>
  <g>
    <path class="cls-1" d="M185.1,103.09v12.47c-2.29-1.18-4.93-1.89-8.42-1.89h-.04l-.03-11.68h.07c3.18,0,5.96.41,8.42,1.09Z"/>
    <path class="cls-1" d="M150.41,153.12c0,2.21-.12,4.25-.34,6.16v-12.09c.21,1.84.33,3.81.34,5.94Z"/>
    <g>
      <path class="cls-1" d="M150.07,147.18v12.09c.22-1.9.34-3.95.34-6.16,0-2.13-.12-4.09-.34-5.94Z"/>
      <path class="cls-1" d="M124.8,5.39c-3.82,1.13-7.59,2.44-11.3,3.92-4.62,1.82-9.17,3.92-13.6,6.26-3.45,1.81-6.83,3.76-10.15,5.86-3.22,2.04-6.37,4.21-9.47,6.51-3.13,2.32-6.19,4.77-9.18,7.34-3.98,3.43-7.82,7.07-11.52,10.91-4.2,4.34-8.2,8.95-12.03,13.79-9.35,11.83-17.55,25.11-24.4,39.55-3.14,6.62-6,13.47-8.54,20.55C5.23,146.12,0,175.06,0,205.54h132.55c16.13,0,29.2-13.07,29.2-29.19V0c-12.71,0-25.08,1.86-36.95,5.39ZM150.07,12.26v35.7c-.95-11.6-5.55-18.18-9.66-24.08-1.67-2.39-3.25-4.66-4.54-7.22-.31-.61-.61-1.24-.88-1.9,4.94-1.15,9.97-1.99,15.08-2.51ZM12.38,193.87h-.42c.97-21.32,4.64-41.72,10.56-60.65,3.56,5.21,6.4,10.33,6.42,19.92.02,10.75-3.55,15.9-7.68,21.86-3.44,4.94-7.21,10.39-8.88,18.87ZM39.83,193.87h-15.45c1.39-4.88,3.82-8.38,6.48-12.22,4.58-6.62,9.79-14.11,9.76-28.53-.03-14.42-5.24-21.9-9.84-28.5-1.22-1.75-2.4-3.44-3.45-5.21,1.25-3.24,2.57-6.42,3.95-9.56,2.6-5.88,5.42-11.58,8.47-17.06-.6,2.93-.96,6.23-.95,10,0,2.56.17,4.9.48,7.06,1.37,9.99,5.58,16.02,9.37,21.45,4.15,5.94,7.72,11.07,7.74,21.84.02,10.75-3.55,15.9-7.68,21.86-3.44,4.94-7.21,10.39-8.88,18.87ZM67.28,193.87h-15.44c1.38-4.88,3.81-8.38,6.47-12.22,4.59-6.62,9.79-14.11,9.76-28.53-.02-14.42-5.24-21.9-9.84-28.5-4.15-5.94-7.73-11.08-7.74-21.84-.02-10.75,3.55-15.9,7.68-21.85,2.98-4.29,6.21-8.96,8.11-15.65.89-3.13,1.48-6.71,1.62-10.89,2.43-2.52,4.92-4.94,7.46-7.26,2.18-1.99,4.39-3.9,6.66-5.74.59,1.72,1.05,3.6,1.34,5.74.22,1.6.34,3.36.35,5.29.02,10.76-3.55,15.9-7.68,21.86-4.59,6.62-9.79,14.1-9.76,28.52.02,14.43,5.24,21.91,9.84,28.51,4.15,5.94,7.72,11.07,7.74,21.84.02,10.75-3.55,15.9-7.68,21.86-3.43,4.94-7.21,10.39-8.88,18.87ZM94.72,193.87h-15.44c1.38-4.88,3.81-8.38,6.47-12.22,4.59-6.62,9.79-14.11,9.76-28.53-.02-14.42-5.24-21.9-9.84-28.5-4.15-5.94-7.73-11.08-7.74-21.84-.02-10.75,3.55-15.9,7.68-21.85,4.58-6.62,9.79-14.1,9.76-28.53,0-5.46-.76-9.92-1.95-13.71-.5-1.62-1.09-3.13-1.73-4.54,0,0,0,0,0,0,1.39-.97,2.81-1.9,4.23-2.79,1.87-1.18,3.76-2.31,5.66-3.39.6.9,1.21,1.77,1.81,2.62.18.26.35.51.53.77,3.92,5.63,7.19,10.77,7.21,21.07.02,10.76-3.55,15.9-7.68,21.86-4.59,6.62-9.79,14.1-9.76,28.52.02,14.43,5.24,21.91,9.84,28.51,4.15,5.94,7.72,11.07,7.74,21.84.02,10.75-3.55,15.9-7.68,21.86-3.43,4.94-7.21,10.39-8.88,18.87ZM131.05,175c-3.44,4.94-7.22,10.39-8.88,18.87h-15.44c1.38-4.88,3.81-8.38,6.47-12.22,4.59-6.62,9.79-14.11,9.77-28.53-.03-14.42-5.24-21.9-9.85-28.5-4.15-5.94-7.73-11.08-7.74-21.84-.02-10.75,3.55-15.9,7.68-21.85,4.58-6.62,9.79-14.1,9.76-28.53-.03-13.26-4.44-20.65-8.72-26.89-.38-.55-.76-1.09-1.13-1.62-.3-.43-.6-.86-.89-1.28,1.56-.71,3.12-1.38,4.7-2.03,2.28-.92,4.58-1.78,6.91-2.57h0c.34.89.7,1.75,1.08,2.57,1.79,3.88,3.99,7.02,6.06,10,4.15,5.94,7.72,11.07,7.74,21.84.02,10.76-3.55,15.9-7.68,21.86-4.59,6.62-9.79,14.1-9.76,28.52.02,14.43,5.24,21.91,9.84,28.51,4.15,5.94,7.72,11.07,7.74,21.84.02,10.75-3.54,15.9-7.67,21.86ZM150.07,159.27v17.08c0,9.1-6.98,16.6-15.87,17.43,1.38-4.84,3.81-8.32,6.45-12.14,3.88-5.61,8.2-11.83,9.43-22.38v-12.09c-1.21-10.67-5.59-16.94-9.51-22.56-4.15-5.94-7.72-11.08-7.74-21.84-.02-10.75,3.55-15.9,7.68-21.85,4.07-5.86,8.62-12.42,9.58-23.9v90.16c.21,1.84.33,3.81.34,5.94,0,2.21-.12,4.25-.34,6.16Z"/>
    </g>
    <path class="cls-1" d="M0,217.23h0c0,1.95.03,3.9.07,5.84-.04-1.94-.06-3.89-.06-5.84Z"/>
    <path class="cls-1" d="M202.62,217.23c-6.76,0-12.99,2.3-17.93,6.16-4.56,3.56-8.05,8.45-9.86,14.09-.91,2.82-1.41,5.83-1.41,8.95v176.34c14.76,0,29.04-2.51,42.62-7.21,3.74-1.29,7.42-2.75,11.05-4.37,4.48-2.01,8.88-4.26,13.17-6.74,3.48-2,6.91-4.17,10.25-6.49,4.13-2.83,8.14-5.9,12.04-9.19,3.14-2.64,6.22-5.42,9.21-8.34,3.67-3.58,7.22-7.36,10.63-11.31,2.77-3.22,5.46-6.55,8.04-10,3.15-4.18,6.15-8.53,9.01-13.03,2.33-3.69,4.58-7.49,6.71-11.37,2.58-4.69,5.01-9.54,7.28-14.52,1.87-4.08,3.62-8.25,5.26-12.5,1.99-5.15,3.81-10.42,5.47-15.79,1.36-4.41,2.6-8.9,3.71-13.46,4.75-19.34,7.3-39.89,7.3-61.21h-132.55ZM185.1,410.51v-29.35c12.14,3.41,22.14,12.01,27.43,23.24-8.86,3.09-18.03,5.16-27.43,6.1ZM223.38,400.04c-7.09-15.54-21.22-27.21-38.28-30.92v-14.67c22.62,3.85,41.55,18.72,51.04,38.87-4.16,2.48-8.42,4.72-12.76,6.71ZM246.01,386.86c-11.6-23.35-34.16-40.35-60.9-44.23v-14.53c31.34,3.84,58.04,22.95,72.39,49.63-3.71,3.25-7.56,6.3-11.49,9.12ZM266.24,369.46c-16.66-28.9-46.44-49.32-81.13-53.11v-14.48c38.4,3.68,71.63,25.31,91.19,56.37-3.22,3.92-6.57,7.67-10.05,11.21ZM283.87,348.34c-4.74-7-10.18-13.6-16.29-19.71-22.38-22.38-51.32-35.81-82.47-38.5v-14.44c43.9,3.45,82.46,26.19,107.18,59.75-2.66,4.46-5.47,8.76-8.42,12.9ZM298.51,324.22c-3.86-4.88-8.03-9.57-12.5-14.03-27.3-27.3-62.78-43.48-100.91-46.21v-14.43c47.94,3.19,90.62,25.95,120.11,60.31-2.07,4.93-4.31,9.72-6.71,14.37ZM310,297.54c-1.8-1.97-3.65-3.9-5.55-5.79-31.7-31.71-72.9-50.52-117.17-53.76,2.99-5.41,8.74-9.08,15.33-9.08h18.82c35.97,8.9,68.11,27.58,93.45,53.04-1.46,5.31-3.09,10.51-4.89,15.59ZM318.12,268.67c-17.75-16.7-38-30.05-60.31-39.77h65.4c-.63,13.69-2.37,26.99-5.09,39.77Z"/>
    <path class="cls-1" d="M331.91,164.38c-.62-3.91-1.34-7.78-2.13-11.6-1.05-5.08-2.27-10.1-3.62-15.02-1.04-3.78-2.16-7.5-3.37-11.19-1.3-3.96-2.69-7.87-4.18-11.7-1.47-3.8-3.04-7.54-4.69-11.21-1.34-2.99-2.75-5.94-4.21-8.84-1.78-3.53-3.63-6.98-5.57-10.35-2.45-4.27-5.04-8.42-7.74-12.43-2.85-4.25-5.85-8.35-8.96-12.29-8.27-10.44-17.42-19.75-27.3-27.74-4.97-4.02-10.13-7.72-15.45-11.03C223.18,7.55,199,0,173.42,0v176.35c0,16.12,13.07,29.19,29.2,29.19h132.55c0-14.09-1.12-27.86-3.25-41.16ZM315.92,148.62c.19-.17.37-.34.55-.5.08-.08.17-.15.25-.22.63,2.59,1.21,5.2,1.75,7.84.25,1.19.48,2.37.7,3.57-.24.11-.47.22-.7.34-4.08,2.05-7.14,4.81-9.84,7.26-4.48,4.07-8.03,7.27-15.49,7.28h-.04c-7.43,0-10.98-3.19-15.47-7.22-5.08-4.56-11.37-10.22-23.28-10.22h-.07c-11.96.03-18.25,5.72-23.31,10.3-4.48,4.07-8.03,7.27-15.49,7.29-7.46,0-11.02-3.18-15.52-7.23-3.71-3.34-8.09-7.27-14.85-9.13v-14.97c2.56,1.31,4.68,3.21,7.04,5.34,5.07,4.55,11.37,10.22,23.28,10.22h.07c11.95-.02,18.25-5.72,23.3-10.31,4.49-4.06,8.03-7.27,15.49-7.28h.05c7.43,0,10.98,3.19,15.47,7.23,5.07,4.55,11.37,10.22,23.28,10.21h.07c11.52-.02,17.79-5.32,22.76-9.81ZM310.2,125.82c.75,2.13,1.47,4.3,2.16,6.48.34,1.05.66,2.08.97,3.14-.33.25-.66.5-.97.76-1.35,1.09-2.58,2.2-3.74,3.26-4.48,4.07-8.03,7.26-15.49,7.28h-.04c-7.43,0-10.98-3.19-15.47-7.23-5.08-4.55-11.37-10.21-23.28-10.21h-.07c-11.96.02-18.25,5.72-23.31,10.3-4.48,4.07-8.03,7.27-15.49,7.29h-.04c-7.43,0-10.98-3.2-15.48-7.23-3.71-3.34-8.09-7.27-14.85-9.13v-14.97c2.56,1.31,4.68,3.21,7.04,5.34,5.07,4.55,11.37,10.22,23.28,10.22h.07c11.95-.03,18.25-5.73,23.3-10.31,4.49-4.06,8.03-7.27,15.49-7.28h.05c7.43,0,10.98,3.19,15.47,7.22,5.07,4.56,11.37,10.23,23.28,10.22h.07c6.91,0,11.92-1.92,15.91-4.41.39-.25.77-.5,1.13-.74ZM185.1,12.26c17,1.7,33.21,7.08,48.16,15.51-.81.7-1.57,1.39-2.3,2.06-4.48,4.06-8.03,7.26-15.49,7.29-7.46,0-11.02-3.19-15.52-7.24-3.71-3.34-8.09-7.26-14.85-9.13v-8.5ZM185.1,33.23c2.56,1.31,4.68,3.21,7.04,5.34,5.07,4.55,11.37,10.23,23.28,10.23h.07c11.95-.03,18.25-5.73,23.3-10.32,1.72-1.54,3.29-2.97,4.99-4.14,3.92,2.69,7.73,5.61,11.44,8.73,1.69,1.42,3.36,2.89,4.99,4.39-1.54-.27-3.2-.44-4.98-.49-.29,0-.58-.02-.89-.02h-.07c-11.96.03-18.25,5.72-23.31,10.31-4.48,4.07-8.03,7.26-15.49,7.28-7.46.02-11.02-3.18-15.52-7.23-3.71-3.34-8.09-7.26-14.85-9.13v-14.97ZM185.1,60.67c2.56,1.32,4.68,3.22,7.04,5.35,5.07,4.55,11.37,10.22,23.28,10.22h.07c11.95-.03,18.25-5.73,23.3-10.31,4.49-4.06,8.03-7.27,15.49-7.28h.05c7.43,0,10.98,3.19,15.47,7.22,2.83,2.54,6.04,5.43,10.39,7.48,1.23.58,2.55,1.1,3.98,1.51h0c2.97,4.2,5.79,8.56,8.48,13.08.75,1.27,1.49,2.55,2.21,3.84-.56.04-1.13.06-1.74.06h-.48c-7.14-.12-10.63-3.27-15.03-7.22-5.08-4.55-11.37-10.22-23.28-10.22h-.07c-11.96.03-18.25,5.72-23.31,10.31-4.48,4.07-8.03,7.27-15.49,7.29-7.46.04-11.02-3.19-15.52-7.23-3.71-3.35-8.09-7.27-14.85-9.13v-14.98ZM185.1,88.12c2.56,1.31,4.68,3.21,7.04,5.34,5.07,4.55,11.37,10.22,23.28,10.22h.07c11.95-.03,18.25-5.73,23.3-10.31,4.49-4.06,8.03-7.27,15.49-7.28h.05c7.43,0,10.98,3.19,15.47,7.22,5.07,4.55,11.37,10.22,23.28,10.22h.07c2.04,0,3.92-.18,5.66-.48.6-.11,1.19-.23,1.75-.36h0c1.41,2.9,2.75,5.84,4.05,8.84.42.97.82,1.94,1.23,2.91h0c-.41.35-.81.67-1.23.99-3.03,2.3-6.32,3.85-11.5,3.86h-.04c-7.43,0-10.98-3.19-15.47-7.23-5.08-4.55-11.37-10.21-23.28-10.21h-.07c-11.96.02-18.25,5.72-23.31,10.3-4.48,4.07-8.03,7.27-15.49,7.29h-.04c-7.43,0-10.98-3.2-15.48-7.23-3.71-3.34-8.09-7.27-14.85-9.13v-14.97ZM202.62,193.87c-9.66,0-17.51-7.86-17.51-17.51v-5.9c2.56,1.31,4.68,3.22,7.04,5.34,5.07,4.55,11.37,10.22,23.28,10.22h.07c11.95-.02,18.25-5.72,23.3-10.31,4.49-4.06,8.03-7.26,15.49-7.28h.05c7.43,0,10.98,3.19,15.47,7.23,5.07,4.55,11.37,10.22,23.28,10.21h.07c11.95-.02,18.25-5.72,23.31-10.3,1.45-1.31,2.79-2.53,4.21-3.59.17-.12.34-.25.5-.36,1,7.29,1.69,14.7,2.04,22.25h-120.6Z"/>
    <g>
      <path class="cls-1" d="M127.86,321.36c.92,1.94,1.82,3.92,2.7,5.9-.87-1.98-1.77-3.96-2.7-5.9ZM0,217.23h0c0,1.95.03,3.9.07,5.84-.04-1.94-.06-3.89-.06-5.84Z"/>
      <path class="cls-1" d="M160.34,237.43c-1.87-5.79-5.5-10.8-10.27-14.37-4.88-3.67-10.94-5.84-17.51-5.84H0c0,1.95.02,3.9.06,5.84.1,4.84.34,9.62.71,14.37.3,3.92.68,7.82,1.16,11.68.59,4.85,1.32,9.64,2.17,14.37.72,3.94,1.52,7.83,2.41,11.68,1.13,4.91,2.4,9.73,3.81,14.47.43,1.48.89,2.95,1.36,4.42.77,2.44,1.58,4.86,2.44,7.26,1.71,4.86,3.57,9.62,5.57,14.28,1.71,3.98,3.52,7.87,5.43,11.68,2.47,4.97,5.12,9.8,7.93,14.47,2.4,4.01,4.92,7.91,7.56,11.68,3.51,5.06,7.22,9.89,11.11,14.47,3.46,4.08,7.07,7.99,10.81,11.68,13.55,13.4,28.83,24.12,45.35,31.54,14.57,6.54,30.11,10.51,46.27,11.45h0c2.52.16,5.05.23,7.6.23v-176.34c0-3.14-.5-6.16-1.41-8.99ZM132.55,228.9c6.38,0,11.98,3.42,15.03,8.53h-77.56c-5.23-3.2-10.62-6.05-16.14-8.53h78.66ZM94.49,302v25.8l-.42-.53-9.19-11.68-1.38-1.76-5.33-6.79-9.19,7.22,1.05,1.33,9.18,11.68,11.38,14.47,9.18,11.68,5.87,7.47h-16.3v11.68h25.48l5.52,7.01,23.74,30.19c-23.51-3.57-45.37-14.2-64.29-30.19-4.28-3.62-8.42-7.52-12.38-11.68-4.32-4.53-8.45-9.36-12.36-14.47-2.86-3.74-5.62-7.64-8.24-11.68-3.01-4.64-5.87-9.47-8.55-14.47-2.03-3.79-3.96-7.69-5.78-11.68-2.13-4.64-4.1-9.4-5.93-14.28-1.43-3.83-2.76-7.72-4-11.68-1.49-4.74-2.83-9.56-4.01-14.47-.94-3.84-1.78-7.73-2.52-11.68-.9-4.72-1.67-9.52-2.29-14.37-.5-3.85-.9-7.75-1.22-11.68-.21-2.62-.38-5.26-.51-7.91,11.07,1.13,21.82,3.83,32.09,7.91h0c7.82,3.12,15.38,7.03,22.61,11.68,6.55,4.21,12.82,9.01,18.78,14.37,1.78,1.59,3.53,3.24,5.24,4.93.24.24.49.47.73.72.66.65,1.31,1.31,1.96,1.98.14.14.27.28.42.43.66.68,1.32,1.37,1.97,2.07.48.51.95,1.03,1.42,1.54,4.13,4.54,8.07,9.38,11.79,14.47.69.94,1.37,1.89,2.05,2.84,1.82,2.58,3.57,5.21,5.28,7.91.19.3.38.61.58.92,2.86,4.59,5.57,9.35,8.11,14.28.97,1.9,1.93,3.83,2.86,5.78.93,1.94,1.83,3.92,2.7,5.9,2.07,4.7,4,9.52,5.76,14.47,1.37,3.83,2.65,7.72,3.82,11.68,1.42,4.74,2.68,9.57,3.8,14.47.22.97.43,1.92.65,2.89.21.97.42,1.94.61,2.91.4,1.95.77,3.9,1.12,5.87,1,5.64,1.81,11.38,2.41,17.2l-13.53-17.2-9.19-11.68-11.38-14.47-8.46-10.76v-40.64h-11.68ZM150.07,341.73h-1.38c-1.67-4.93-3.47-9.74-5.42-14.47h6.8v14.47ZM150.07,315.59h-12.03c-2.36-4.9-4.88-9.66-7.54-14.28h19.57v14.28ZM150.07,289.63h-26.83c-3.38-5.04-6.94-9.87-10.67-14.47h37.51v14.47ZM150.07,263.48h-47.84c-4.99-5.17-10.21-9.98-15.67-14.37h63.51v14.37Z"/>
    </g>
  </g>
  <g>
    <path class="cls-1" d="M557.05,293.29l-.08.18h0c-2.69.16-5.46.25-8.32.25-3.77,0-7.39-.15-10.87-.42h19.27Z"/>
    <path class="cls-1" d="M498.65,199.09c16.7-6.78,27.92-20.61,27.92-41.49,0-29.74-23.48-46.96-64.19-46.96h-78.8v182.64h84.02c45.66,0,68.62-17.74,68.62-48.79,0-24.79-14.09-40.18-37.57-45.4ZM402.89,126.56h58.18c29.22,0,46.18,11.22,46.18,33.14s-16.96,33.14-46.18,33.14h-58.18v-66.27ZM467.34,277.37h-64.45v-68.62h64.45c32.09,0,49.57,10.44,49.57,34.18s-17.48,34.44-49.57,34.44Z"/>
    <g>
      <path class="cls-1" d="M574.02,255.38l-9.82,21.95,9.83-21.95h0ZM536.99,293.22l-.03.07h.82c-.27-.02-.53-.05-.79-.07ZM722.92,293.13l-.07.15h.14l-.07-.15Z"/>
      <path class="cls-1" d="M902.03,278.27h0c-1.53.06-3.1.09-4.7.09-5.7,0-11-.38-15.95-1.08-30.24-4.32-47.65-20.87-65.93-38.25-10.78-10.24-21.73-20.66-35.33-28.73-4.89-2.9-10.12-5.5-15.81-7.68-11.56-4.44-25.01-7.14-41.32-7.14s-29.84,2.72-41.42,7.18l-42.06-92.01h-19.05l-83.46,182.57c.26.02.52.05.79.07h19.27l-.08.18c.86-.05,1.7-.11,2.54-.18,39.54-3.15,60.89-23.44,81.59-43.13,9.82-9.33,19.38-18.42,30.8-25.5l30.73,68.63h20.21l.07-.15-34.94-76.42c9.88-3.69,21.26-5.89,35-5.89s25.04,2.18,34.89,5.85c5.75,2.13,10.99,4.77,15.89,7.79,11.56,7.11,21.2,16.28,31.1,25.69,20.7,19.68,42.05,39.97,81.59,43.13.71.05,1.43.11,2.15.15,2.81.18,5.72.27,8.72.27,3.77,0,7.39-.15,10.87-.42.22-.02.44-.04.67-.06l-6.83-14.96ZM630.53,239.03c-18.36,17.46-35.84,34.08-66.33,38.3l9.82-21.95h0l8.16-18.23,10.46-23.35,10.33-23.06,26.87-60.01,11.76,26.26,6.61,14.76,5.06,11.28,6.48,14.47,5.81,12.97c-13.47,8.04-24.33,18.38-35.03,28.55Z"/>
      <path class="cls-1" d="M908.87,293.22h0c-.22.02-.44.05-.67.06h.7l-.02-.06ZM722.92,293.13l-.07.15h.14l-.07-.15Z"/>
      <path class="cls-1" d="M825.4,110.64h-19.05l-22.48,49.17c4.73,3.65,9.2,7.6,13.61,11.69,2.47,2.29,4.92,4.62,7.38,6.96,13.92,13.24,28.14,26.75,47.99,35.14,6.81,2.89,14.28,5.16,22.63,6.62l-50.09-109.58ZM842.45,190.38c-9.79-6.68-18.29-14.76-27-23.04-3.73-3.55-7.47-7.11-11.35-10.59l11.65-26.01,26.71,59.64h0Z"/>
      <path class="cls-1" d="M892.66,257.79c-7.67-.25-14.67-1.11-21.13-2.49-30.3-6.43-48.72-23.94-66.66-40.99-6.23-5.92-12.36-11.75-18.93-17.02-4.58-3.69-9.39-7.11-14.58-10.11l6.43-14.07c5.23,2.92,10.06,6.21,14.63,9.71,8.27,6.33,15.69,13.38,23.03,20.36,14.3,13.61,28.08,26.7,47.89,33.82h0c6.61,2.37,13.87,4.07,22.07,4.92l7.25,15.86Z"/>
      <path class="cls-1" d="M796.11,293.29h-27.33c-6.61-3.53-13.87-6.38-22.14-8.26-5.77-1.32-12.03-2.16-18.91-2.42l6.84-14.96c6.65.57,12.78,1.62,18.47,3.08,17.67,4.51,31.19,12.88,43.07,22.55Z"/>
      <path class="cls-1" d="M836.12,293.29h-23.52c-2.61-2.41-5.18-4.85-7.74-7.28-13.39-12.74-26.31-25.02-44.16-32.38-5.31-2.2-11.05-3.94-17.37-5.13l6.56-14.36c6.17,1.37,11.84,3.21,17.11,5.41,20.08,8.38,34.4,21.99,48.43,35.33,6.78,6.45,13.44,12.78,20.68,18.41Z"/>
    </g>
    <path class="cls-1" d="M995.46,193.35l79.06-82.71h-22.18l-107.23,110.37v-110.37h-19.31v182.64h19.31v-48.01l37.3-37.83,74.62,85.84h22.96l-84.54-99.93Z"/>
    <line class="cls-1" x1="892.66" y1="257.78" x2="885.4" y2="241.92"/>
    <rect class="cls-1" x="556.91" y="293.37" width=".19" height="0" transform="translate(65.89 687.24) rotate(-66.5)"/>
    <polygon class="cls-1" points="574.03 255.38 564.2 277.33 574.02 255.38 574.03 255.38"/>
  </g>
  <g>
    <path class="cls-1" d="M1079.37,354.68c-.41-.42-.92-.63-1.53-.63s-1.11.23-1.5.67c-8.15,7.71-17.65,12.86-28.51,15.47-.5.11-.9-.03-1.21-.42-.3-.39-.35-.8-.12-1.25.77-1.45,1.09-2.98.95-4.61-.13-1.64-.67-3.12-1.62-4.45-1.22-1.55-2.69-2.83-4.41-3.83-1.61-1.1-2.83-2.06-3.7-2.86-.86-.81-1.28-1.65-1.28-2.54.05-1.1.44-2.08,1.16-2.91l4.57-4.24c.39-.39.61-.87.67-1.45.06-.58-.11-1.09-.49-1.54-.39-.44-.87-.69-1.45-.74-.59-.06-1.1.08-1.54.41-1.83,1.33-3.47,2.86-4.91,4.57l-12.72,11.97c-.24.22-.42.45-.54.69,0,0,0,0,0,0-.23.17-.48.35-.74.55-.91.67-2.63,1.79-5.15,3.37-2.52,1.58-5.12,3.07-7.81,4.49-2.69,1.42-5.91,2.81-9.68,4.2-3.77,1.38-7.46,2.41-11.07,3.07-3.6.67-7.48.87-11.64.63-4.15-.26-8.03-1.12-11.64-2.62-4.05-1.61-5.88-3.82-5.49-6.65-.06-.28.03-.5.25-.67.22-.17.47-.22.75-.17,5.59.33,10.75-.97,15.46-3.91,3.27-2.16,4.77-4.57,4.49-7.23-.1-1.55-.7-2.85-1.79-3.91-1.07-1.05-2.37-1.58-3.86-1.58-2.22-.1-4.72.56-7.53,2-2.77,1.43-5.28,3.39-7.53,5.9h-.08c-.61,0-1.1.22-1.49.67-.17.17-.46.45-.87.83-.42.39-1.16,1.08-2.24,2.08-1.08,1-2.22,1.99-3.41,2.95-1.19.98-2.62,2.07-4.32,3.29-1.69,1.22-3.37,2.33-5.03,3.33-1.66,1-3.48,1.94-5.45,2.82-1.97.88-3.85,1.58-5.66,2.08-1.8.49-3.64.74-5.52.74s-3.63-.3-5.24-.91c-5.6-2.16-9.09-8.15-10.48-17.96,2.77-6.98,4.85-12.49,6.24-16.54.16-.39.34-.64.54-.75.19-.1.54-.16,1.04-.16,10.64-.84,20.29-1.25,28.93-1.25.61,0,1.12-.22,1.54-.67.42-.45.63-.96.63-1.54s-.21-1.09-.63-1.54c-.42-.44-.93-.67-1.54-.67-5.6,0-14.75.39-27.44,1.17-.16,0-.3-.05-.41-.12-.11-.09-.21-.26-.29-.5-.09-.25-.04-.59.12-1.04,2.22-6.21,3.83-11.77,4.82-16.67,1-4.91,1.08-8.19.26-9.86-1.28-2.6-3.02-3.71-5.24-3.33-1.45.29-2.84,1.39-4.2,3.33-1.36,1.94-2.57,4.41-3.61,7.41-1.06,2.99-1.99,6.12-2.79,9.39-.81,3.27-1.45,6.62-1.96,10.06-.22,1.44-.83,2.22-1.83,2.33-2.44.16-4.93.34-7.48.53-2.55.2-4.75.36-6.61.5-1.86.14-3.55.27-5.08.37-1.52.11-2.7.2-3.53.26-.84.05-1.27.08-1.33.08-.61,0-1.11.23-1.5.67-.38.45-.58.97-.58,1.58s.22,1.12.67,1.54c.45.42.97.6,1.58.54h.17c.06,0,.47-.03,1.25-.09.78-.06,1.9-.12,3.37-.21,1.47-.08,3.09-.19,4.87-.33,1.77-.13,3.88-.3,6.31-.49,2.44-.19,4.82-.37,7.15-.54.45-.06.84.06,1.17.33.33.28.52.64.58,1.08-.35,5.69-.21,10.83.43,15.39-.05,0-.1,0-.14,0-.58,0-1.09.22-1.53.67-.29.28-.84.82-1.66,1.62-.84.81-2.26,2.03-4.29,3.7-2.02,1.66-4.13,3.24-6.31,4.74-2.2,1.49-4.74,2.95-7.65,4.36-2.91,1.41-5.73,2.45-8.48,3.12-2.74.67-5.61.79-8.6.37-2.99-.42-5.7-1.51-8.15-3.28-1-.72-1.67-1.74-2.03-3.04-.36-1.3-.48-2.53-.37-3.7.1-1.16.37-2.41.79-3.74.42-1.33.75-2.26,1-2.79.25-.53.43-.93.54-1.21.28-.5.31-1.03.12-1.58-.2-.55-.56-.97-1.08-1.25-.52-.28-1.06-.33-1.62-.17-.56.17-1,.5-1.33,1-.06.1-.1.21-.16.33-.48.08-.89.3-1.25.67-2.66,2.82-5.97,5.67-9.93,8.52-3.96,2.86-8.42,5.39-13.39,7.61-4.96,2.22-9.38,3.32-13.26,3.32h-.16c-3.49.11-6.48-1.07-8.98-3.57-.88-1-1.37-2.58-1.45-4.73-.08-2.17.06-4.09.42-5.78.36-1.69.76-3.18,1.21-4.45.16-.49.15-1-.04-1.49-.2-.5-.54-.87-1.05-1.12-.49-.25-1.01-.32-1.54-.21-.52.11-.95.42-1.28.91-3.33,4.88-6.89,9.06-10.69,12.56-3.79,3.49-6.39,4.82-7.77,3.98-.29-.38-.35-1.18-.21-2.37.13-1.19.64-2.89,1.49-5.11.86-2.22,1.96-4.46,3.29-6.73.22-.55.25-1.11.08-1.66-.16-.55-.49-.97-1-1.25-.49-.28-1.03-.34-1.58-.21-.55.14-1,.46-1.33.96-.08.14-.15.28-.22.42h0c-.5.06-.92.28-1.26.66-8.15,7.71-17.65,12.86-28.51,15.47-.5.11-.9-.03-1.21-.42-.3-.39-.35-.8-.12-1.25.77-1.45,1.09-2.98.95-4.61-.13-1.64-.68-3.12-1.62-4.45-1.23-1.55-2.69-2.83-4.41-3.83-1.61-1.1-2.84-2.06-3.7-2.86-.86-.81-1.28-1.65-1.28-2.54.05-1.1.44-2.08,1.16-2.91l4.57-4.24c.39-.39.61-.87.67-1.45.06-.58-.11-1.09-.5-1.54-.38-.44-.87-.69-1.45-.74-.58-.06-1.09.08-1.53.41-1.83,1.33-3.47,2.86-4.91,4.57l-12.72,11.97c-.67.62-.9,1.33-.71,2.17.2.83.71,1.36,1.54,1.58.84.22,1.55.06,2.17-.5l6.31-5.98c.28-.28.64-.39,1.08-.33.44.06.77.28,1,.67,1.55,2.16,3.49,3.94,5.82,5.31,1.16.72,2.22,1.59,3.16,2.59.94.99,1.29,2.15,1.04,3.44-.25,1.31-.95,2.29-2.12,2.96-2.65,1.49-5.47,1.93-8.43,1.28-2.97-.64-5.36-2.17-7.2-4.61-.33-.49-.79-.82-1.37-.95-.58-.14-1.12-.05-1.62.29-.5.33-.82.78-.96,1.33-.13.55-.07,1.08.21,1.58,1.39,2.39,3.24,4.32,5.57,5.78,2.33,1.47,4.88,2.31,7.64,2.54,1.33.16,2.72.25,4.16.25,6.7,0,13.91-1.78,21.61-5.32,4.93-2.27,9.27-4.8,13.02-7.6-.15.44-.31.89-.47,1.36-.72,2.17-.96,4.12-.71,5.87.26,1.75,1.05,3,2.38,3.78,3.76,2.27,8.95-.03,15.54-6.9.55-.55,1.21-.72,1.95-.49.75.22,1.18.71,1.29,1.49.28,2.05,1.1,3.85,2.49,5.4,3.27,3.5,7.32,5.16,12.14,4.99h.16c4.33,0,9.17-1.15,14.56-3.45,5.37-2.3,10.18-4.99,14.42-8.06,2.33-1.69,4.48-3.39,6.43-5.1-.13.79-.21,1.57-.24,2.31-.05,1.55.26,3.24.92,5.07.66,1.83,1.77,3.3,3.32,4.41,4.05,3.05,8.62,4.54,13.72,4.49,3.33,0,6.87-.67,10.64-2,3.77-1.33,7.04-2.84,9.81-4.53,2.78-1.69,5.56-3.63,8.36-5.83,2.8-2.19,4.73-3.76,5.78-4.73.73-.68,1.36-1.26,1.9-1.8.39,1.7.87,3.32,1.43,4.83,2.38,6.48,6.07,10.68,11.06,12.56,2.22.83,4.46,1.25,6.73,1.25,3.1,0,6.45-.68,10.02-2.03,3.57-1.36,6.7-2.87,9.39-4.53,2.69-1.66,5.4-3.57,8.15-5.73.71-.56,1.37-1.08,1.96-1.57-.03.22-.04.43-.05.65-.03.72.09,1.57.33,2.54.25.97.66,1.88,1.21,2.75.55.86,1.4,1.74,2.53,2.66,1.14.91,2.54,1.7,4.2,2.37,5.21,2.1,10.64,3.13,16.29,3.07,4.43,0,9.09-.64,13.97-1.91,4.88-1.27,9.05-2.69,12.51-4.24,3.46-1.55,6.94-3.37,10.44-5.45,3.49-2.07,5.85-3.56,7.06-4.44,1.22-.89,2.24-1.66,3.07-2.33.36-.28.6-.61.73-1h0s5.17-4.91,5.17-4.91c.28-.28.64-.39,1.08-.33.45.06.78.28,1,.67,1.55,2.16,3.49,3.94,5.82,5.31,1.16.72,2.22,1.59,3.16,2.59.94.99,1.29,2.15,1.05,3.44-.26,1.31-.96,2.29-2.12,2.96-2.66,1.49-5.48,1.93-8.44,1.28-2.97-.64-5.36-2.17-7.19-4.61-.33-.49-.79-.82-1.38-.95-.58-.14-1.12-.05-1.62.29-.5.33-.82.78-.96,1.33-.13.55-.07,1.08.21,1.58,1.39,2.39,3.24,4.32,5.57,5.78,2.33,1.47,4.88,2.31,7.65,2.54,1.32.16,2.71.25,4.15.25,6.7,0,13.91-1.78,21.61-5.32,7.71-3.55,13.98-7.73,18.8-12.55.38-.45.58-.97.58-1.58s-.21-1.12-.63-1.54ZM960.87,358.13c1.61-2.17,3.58-3.94,5.94-5.32,2.36-1.38,4.42-2.02,6.2-1.91.49.06.86.18,1.07.37.22.2.36.6.42,1.21.11.94-.69,2-2.41,3.16-.38.23-.86.5-1.41.84-3.6,1.83-6.57,2.82-8.9,2.99-1.33.1-1.64-.33-.91-1.33ZM908.83,331.02c.83-5.93,2.04-11.27,3.66-16,1.61-4.74,3.04-7.81,4.32-9.19.22-.22.5-.29.84-.2.33.08.55.29.67.62,1,2.05-1.03,10.45-6.07,25.19-.16.88-.67,1.36-1.49,1.41-.45.06-.88.09-1.33.09-.61,0-.81-.64-.58-1.91ZM907.75,343.99c-.22,0-.36-.48-.42-1.45-.05-.97,0-2,.12-3.07.14-1.08.35-1.76.63-2.04.67-.49,1.39-.55,2.16-.16.33.39.13,1.61-.62,3.66-.75,2.04-1.37,3.07-1.87,3.07Z"/>
    <path class="cls-1" d="M858.53,341.45c-.44-.41-.95-.62-1.54-.62s-1.09.22-1.53.67c-1.23,1.27-2.6,2.3-4.15,3.07-1,.56-1.36,1.39-1.08,2.5.28,1.1.97,1.66,2.07,1.66.39,0,.75-.11,1.08-.33,1.94-1,3.69-2.3,5.24-3.91.45-.45.65-.96.63-1.54-.03-.58-.27-1.08-.71-1.5Z"/>
  </g>
</svg>