<?xml version="1.0" encoding="UTF-8"?>
<!DOCTYPE svg PUBLIC "-//W3C//DTD SVG 1.1//EN" "http://www.w3.org/Graphics/SVG/1.1/DTD/svg11.dtd">
<!-- Creator: CorelDRAW -->
<svg xmlns="http://www.w3.org/2000/svg" xml:space="preserve" width="104.531mm" height="22.4886mm" version="1.1" style="shape-rendering:geometricPrecision; text-rendering:geometricPrecision; image-rendering:optimizeQuality; fill-rule:evenodd; clip-rule:evenodd"
viewBox="0 0 4354 937"
 xmlns:xlink="http://www.w3.org/1999/xlink"
 xmlns:xodm="http://www.corel.com/coreldraw/odm/2003">
 <defs>
  <style type="text/css">
   <![CDATA[
    .fil0 {fill:white}
   ]]>
  </style>
 </defs>
 <g id="Capa_x0020_1">
  <metadata id="CorelCorpID_0Corel-Layer"/>
  <path class="fil0" d="M0 918l0 -901 625 0c57,0 108,7 153,22 45,14 82,35 114,62 31,27 55,60 71,99 17,39 24,82 24,131 0,49 -8,93 -24,131 -17,39 -40,72 -71,99 -31,27 -69,48 -114,63 -45,14 -95,22 -153,22l-345 0 0 274 -280 0 0 -1zm280 -487l319 0c18,0 35,-4 50,-12 15,-8 26,-19 35,-35 8,-15 12,-33 12,-54 0,-32 -9,-57 -28,-75 -18,-18 -41,-27 -70,-27l-319 0 0 203 0 0zm1121 448c-89,-38 -157,-92 -206,-162 -48,-70 -72,-153 -72,-249 0,-48 6,-93 18,-135 12,-41 30,-80 54,-115 24,-35 53,-66 88,-93 123,-95 279,-126 432,-126 120,0 225,19 313,58 88,38 157,92 205,162 48,70 73,153 73,249 0,48 -6,93 -18,135 -12,41 -30,80 -54,115 -24,35 -53,66 -87,93 -34,27 -73,50 -118,69 -44,19 -92,33 -145,43 -151,28 -344,16 -483,-43zm314 -154c163,0 300,-79 300,-257 0,-55 -12,-101 -37,-140 -25,-38 -60,-68 -105,-88 -45,-20 -97,-30 -157,-30 -125,0 -256,48 -291,181 -6,23 -10,48 -10,77 0,55 12,101 37,140 25,38 60,68 106,88 23,10 171,44 157,30zm770 193l0 -901 280 0 0 690 581 0 0 211 -861 0zm1324 -545l249 -356 295 0 -418 568 0 333 -279 0 0 -333 -420 -568 323 0 250 356z"/>
 </g>
</svg>
